<mxfile host="Electron" agent="Mozilla/5.0 (Windows NT 10.0; Win64; x64) AppleWebKit/537.36 (KHTML, like Gecko) draw.io/24.7.17 Chrome/128.0.6613.36 Electron/32.0.1 Safari/537.36" version="24.7.17" pages="9">
  <diagram id="C5RBs43oDa-KdzZeNtuy" name="Start Up">
    <mxGraphModel dx="1061" dy="625" grid="1" gridSize="10" guides="1" tooltips="1" connect="1" arrows="1" fold="1" page="1" pageScale="1" pageWidth="827" pageHeight="1169" math="0" shadow="0">
      <root>
        <mxCell id="WIyWlLk6GJQsqaUBKTNV-0" />
        <mxCell id="WIyWlLk6GJQsqaUBKTNV-1" parent="WIyWlLk6GJQsqaUBKTNV-0" />
        <mxCell id="WIyWlLk6GJQsqaUBKTNV-3" value="Login" style="rounded=1;whiteSpace=wrap;html=1;fontSize=12;glass=0;strokeWidth=1;shadow=0;" parent="WIyWlLk6GJQsqaUBKTNV-1" vertex="1">
          <mxGeometry x="370" y="150" width="120" height="40" as="geometry" />
        </mxCell>
        <mxCell id="NAs3StJc-EUYy5GG60r2-0" value="START" style="strokeWidth=1;html=1;shape=mxgraph.flowchart.start_2;whiteSpace=wrap;" vertex="1" parent="WIyWlLk6GJQsqaUBKTNV-1">
          <mxGeometry x="240" y="30" width="60" height="60" as="geometry" />
        </mxCell>
        <mxCell id="NAs3StJc-EUYy5GG60r2-6" style="edgeStyle=orthogonalEdgeStyle;rounded=0;orthogonalLoop=1;jettySize=auto;html=1;entryX=0;entryY=0.5;entryDx=0;entryDy=0;" edge="1" parent="WIyWlLk6GJQsqaUBKTNV-1" source="NAs3StJc-EUYy5GG60r2-4" target="WIyWlLk6GJQsqaUBKTNV-3">
          <mxGeometry relative="1" as="geometry" />
        </mxCell>
        <mxCell id="NAs3StJc-EUYy5GG60r2-8" value="No" style="edgeLabel;html=1;align=center;verticalAlign=middle;resizable=0;points=[];" vertex="1" connectable="0" parent="NAs3StJc-EUYy5GG60r2-6">
          <mxGeometry x="-0.1581" y="-2" relative="1" as="geometry">
            <mxPoint y="-12" as="offset" />
          </mxGeometry>
        </mxCell>
        <mxCell id="NAs3StJc-EUYy5GG60r2-10" style="edgeStyle=orthogonalEdgeStyle;rounded=0;orthogonalLoop=1;jettySize=auto;html=1;entryX=0.5;entryY=0;entryDx=0;entryDy=0;" edge="1" parent="WIyWlLk6GJQsqaUBKTNV-1" source="NAs3StJc-EUYy5GG60r2-4" target="NAs3StJc-EUYy5GG60r2-9">
          <mxGeometry relative="1" as="geometry" />
        </mxCell>
        <mxCell id="NAs3StJc-EUYy5GG60r2-12" value="Yes" style="edgeLabel;html=1;align=center;verticalAlign=middle;resizable=0;points=[];" vertex="1" connectable="0" parent="NAs3StJc-EUYy5GG60r2-10">
          <mxGeometry x="-0.1167" y="-1" relative="1" as="geometry">
            <mxPoint x="21" as="offset" />
          </mxGeometry>
        </mxCell>
        <mxCell id="NAs3StJc-EUYy5GG60r2-4" value="Is logged&amp;nbsp;&lt;div&gt;on the app?&lt;/div&gt;" style="strokeWidth=1;html=1;shape=mxgraph.flowchart.decision;whiteSpace=wrap;" vertex="1" parent="WIyWlLk6GJQsqaUBKTNV-1">
          <mxGeometry x="220" y="130" width="100" height="80" as="geometry" />
        </mxCell>
        <mxCell id="NAs3StJc-EUYy5GG60r2-5" style="edgeStyle=orthogonalEdgeStyle;rounded=0;orthogonalLoop=1;jettySize=auto;html=1;entryX=0.5;entryY=0;entryDx=0;entryDy=0;entryPerimeter=0;" edge="1" parent="WIyWlLk6GJQsqaUBKTNV-1" source="NAs3StJc-EUYy5GG60r2-0" target="NAs3StJc-EUYy5GG60r2-4">
          <mxGeometry relative="1" as="geometry" />
        </mxCell>
        <mxCell id="NAs3StJc-EUYy5GG60r2-9" value="Home" style="rounded=1;whiteSpace=wrap;html=1;absoluteArcSize=1;arcSize=14;strokeWidth=1;" vertex="1" parent="WIyWlLk6GJQsqaUBKTNV-1">
          <mxGeometry x="210" y="250" width="120" height="40" as="geometry" />
        </mxCell>
      </root>
    </mxGraphModel>
  </diagram>
  <diagram id="sX9BV34E5uOIgbZepUq_" name="Login">
    <mxGraphModel dx="1114" dy="656" grid="1" gridSize="10" guides="1" tooltips="1" connect="1" arrows="1" fold="1" page="1" pageScale="1" pageWidth="1169" pageHeight="827" math="0" shadow="0">
      <root>
        <mxCell id="0" />
        <mxCell id="1" parent="0" />
        <mxCell id="IFL9AA784NtUDXJpu881-12" style="edgeStyle=orthogonalEdgeStyle;rounded=0;orthogonalLoop=1;jettySize=auto;html=1;entryX=0.5;entryY=0;entryDx=0;entryDy=0;" edge="1" parent="1" source="IFL9AA784NtUDXJpu881-1" target="IFL9AA784NtUDXJpu881-9">
          <mxGeometry relative="1" as="geometry" />
        </mxCell>
        <mxCell id="IFL9AA784NtUDXJpu881-1" value="Login" style="rounded=1;whiteSpace=wrap;html=1;fontSize=12;glass=0;strokeWidth=1;shadow=0;" vertex="1" parent="1">
          <mxGeometry x="380" y="100" width="120" height="40" as="geometry" />
        </mxCell>
        <mxCell id="IFL9AA784NtUDXJpu881-4" style="edgeStyle=orthogonalEdgeStyle;rounded=0;orthogonalLoop=1;jettySize=auto;html=1;entryX=0.5;entryY=0;entryDx=0;entryDy=0;entryPerimeter=0;" edge="1" parent="1" source="IFL9AA784NtUDXJpu881-6" target="IFL9AA784NtUDXJpu881-17">
          <mxGeometry relative="1" as="geometry">
            <mxPoint x="440" y="470" as="targetPoint" />
          </mxGeometry>
        </mxCell>
        <mxCell id="IFL9AA784NtUDXJpu881-5" value="Yes" style="edgeLabel;html=1;align=center;verticalAlign=middle;resizable=0;points=[];" vertex="1" connectable="0" parent="IFL9AA784NtUDXJpu881-4">
          <mxGeometry x="-0.1167" y="-1" relative="1" as="geometry">
            <mxPoint x="21" as="offset" />
          </mxGeometry>
        </mxCell>
        <mxCell id="IFL9AA784NtUDXJpu881-15" style="edgeStyle=orthogonalEdgeStyle;rounded=0;orthogonalLoop=1;jettySize=auto;html=1;entryX=1;entryY=0.5;entryDx=0;entryDy=0;" edge="1" parent="1" source="IFL9AA784NtUDXJpu881-6" target="IFL9AA784NtUDXJpu881-9">
          <mxGeometry relative="1" as="geometry">
            <Array as="points">
              <mxPoint x="580" y="380" />
              <mxPoint x="580" y="195" />
            </Array>
          </mxGeometry>
        </mxCell>
        <mxCell id="IFL9AA784NtUDXJpu881-16" value="No" style="edgeLabel;html=1;align=center;verticalAlign=middle;resizable=0;points=[];" vertex="1" connectable="0" parent="IFL9AA784NtUDXJpu881-15">
          <mxGeometry x="-0.7817" y="1" relative="1" as="geometry">
            <mxPoint y="-9" as="offset" />
          </mxGeometry>
        </mxCell>
        <mxCell id="IFL9AA784NtUDXJpu881-6" value="User Exist?" style="strokeWidth=1;html=1;shape=mxgraph.flowchart.decision;whiteSpace=wrap;" vertex="1" parent="1">
          <mxGeometry x="390" y="340" width="100" height="80" as="geometry" />
        </mxCell>
        <mxCell id="IFL9AA784NtUDXJpu881-13" style="edgeStyle=orthogonalEdgeStyle;rounded=0;orthogonalLoop=1;jettySize=auto;html=1;entryX=0.5;entryY=0;entryDx=0;entryDy=0;" edge="1" parent="1" source="IFL9AA784NtUDXJpu881-9" target="IFL9AA784NtUDXJpu881-11">
          <mxGeometry relative="1" as="geometry" />
        </mxCell>
        <mxCell id="IFL9AA784NtUDXJpu881-9" value="Insert email" style="shape=parallelogram;html=1;strokeWidth=1;perimeter=parallelogramPerimeter;whiteSpace=wrap;rounded=1;arcSize=12;size=0.23;" vertex="1" parent="1">
          <mxGeometry x="365" y="170" width="150" height="50" as="geometry" />
        </mxCell>
        <mxCell id="IFL9AA784NtUDXJpu881-11" value="Password" style="shape=parallelogram;html=1;strokeWidth=1;perimeter=parallelogramPerimeter;whiteSpace=wrap;rounded=1;arcSize=12;size=0.23;" vertex="1" parent="1">
          <mxGeometry x="365" y="250" width="150" height="50" as="geometry" />
        </mxCell>
        <mxCell id="IFL9AA784NtUDXJpu881-14" style="edgeStyle=orthogonalEdgeStyle;rounded=0;orthogonalLoop=1;jettySize=auto;html=1;exitX=0.5;exitY=1;exitDx=0;exitDy=0;entryX=0.5;entryY=0;entryDx=0;entryDy=0;entryPerimeter=0;" edge="1" parent="1" source="IFL9AA784NtUDXJpu881-11" target="IFL9AA784NtUDXJpu881-6">
          <mxGeometry relative="1" as="geometry" />
        </mxCell>
        <mxCell id="G8jlkik7d2BzMp-kjcf3-1" value="Submit" style="edgeLabel;html=1;align=center;verticalAlign=middle;resizable=0;points=[];" vertex="1" connectable="0" parent="IFL9AA784NtUDXJpu881-14">
          <mxGeometry x="-0.2" y="-3" relative="1" as="geometry">
            <mxPoint as="offset" />
          </mxGeometry>
        </mxCell>
        <mxCell id="IFL9AA784NtUDXJpu881-18" style="edgeStyle=orthogonalEdgeStyle;rounded=0;orthogonalLoop=1;jettySize=auto;html=1;exitX=1;exitY=0.5;exitDx=0;exitDy=0;exitPerimeter=0;entryX=1;entryY=0.5;entryDx=0;entryDy=0;" edge="1" parent="1" source="IFL9AA784NtUDXJpu881-17" target="IFL9AA784NtUDXJpu881-11">
          <mxGeometry relative="1" as="geometry">
            <Array as="points">
              <mxPoint x="580" y="510" />
              <mxPoint x="580" y="275" />
            </Array>
          </mxGeometry>
        </mxCell>
        <mxCell id="IFL9AA784NtUDXJpu881-19" value="No" style="edgeLabel;html=1;align=center;verticalAlign=middle;resizable=0;points=[];" vertex="1" connectable="0" parent="IFL9AA784NtUDXJpu881-18">
          <mxGeometry x="-0.8399" y="-3" relative="1" as="geometry">
            <mxPoint y="-13" as="offset" />
          </mxGeometry>
        </mxCell>
        <mxCell id="NJD95M8vQ93x0_-I2Khb-2" style="edgeStyle=orthogonalEdgeStyle;rounded=0;orthogonalLoop=1;jettySize=auto;html=1;entryX=0.5;entryY=0;entryDx=0;entryDy=0;entryPerimeter=0;" edge="1" parent="1" source="IFL9AA784NtUDXJpu881-17" target="NJD95M8vQ93x0_-I2Khb-3">
          <mxGeometry relative="1" as="geometry">
            <mxPoint x="440" y="610" as="targetPoint" />
          </mxGeometry>
        </mxCell>
        <mxCell id="NJD95M8vQ93x0_-I2Khb-15" value="Yes" style="edgeLabel;html=1;align=center;verticalAlign=middle;resizable=0;points=[];" vertex="1" connectable="0" parent="NJD95M8vQ93x0_-I2Khb-2">
          <mxGeometry x="0.2" y="-1" relative="1" as="geometry">
            <mxPoint x="11" as="offset" />
          </mxGeometry>
        </mxCell>
        <mxCell id="IFL9AA784NtUDXJpu881-17" value="Is Password correct?" style="strokeWidth=1;html=1;shape=mxgraph.flowchart.decision;whiteSpace=wrap;" vertex="1" parent="1">
          <mxGeometry x="390" y="460" width="100" height="100" as="geometry" />
        </mxCell>
        <mxCell id="NJD95M8vQ93x0_-I2Khb-1" value="Home" style="rounded=1;whiteSpace=wrap;html=1;fontSize=12;glass=0;strokeWidth=1;shadow=0;" vertex="1" parent="1">
          <mxGeometry x="380" y="1000" width="120" height="40" as="geometry" />
        </mxCell>
        <mxCell id="NJD95M8vQ93x0_-I2Khb-5" style="edgeStyle=orthogonalEdgeStyle;rounded=0;orthogonalLoop=1;jettySize=auto;html=1;entryX=0.5;entryY=0;entryDx=0;entryDy=0;" edge="1" parent="1" source="NJD95M8vQ93x0_-I2Khb-3" target="NJD95M8vQ93x0_-I2Khb-4">
          <mxGeometry relative="1" as="geometry" />
        </mxCell>
        <mxCell id="NJD95M8vQ93x0_-I2Khb-14" value="Yes" style="edgeLabel;html=1;align=center;verticalAlign=middle;resizable=0;points=[];" vertex="1" connectable="0" parent="NJD95M8vQ93x0_-I2Khb-5">
          <mxGeometry x="0.36" y="3" relative="1" as="geometry">
            <mxPoint x="7" y="-4" as="offset" />
          </mxGeometry>
        </mxCell>
        <mxCell id="NJD95M8vQ93x0_-I2Khb-10" style="edgeStyle=orthogonalEdgeStyle;rounded=0;orthogonalLoop=1;jettySize=auto;html=1;entryX=0;entryY=0.5;entryDx=0;entryDy=0;" edge="1" parent="1" source="NJD95M8vQ93x0_-I2Khb-3" target="NJD95M8vQ93x0_-I2Khb-1">
          <mxGeometry relative="1" as="geometry">
            <Array as="points">
              <mxPoint x="290" y="640" />
              <mxPoint x="290" y="1020" />
            </Array>
          </mxGeometry>
        </mxCell>
        <mxCell id="NJD95M8vQ93x0_-I2Khb-11" value="No" style="edgeLabel;html=1;align=center;verticalAlign=middle;resizable=0;points=[];" vertex="1" connectable="0" parent="NJD95M8vQ93x0_-I2Khb-10">
          <mxGeometry x="-0.0035" y="1" relative="1" as="geometry">
            <mxPoint x="-11" y="-14" as="offset" />
          </mxGeometry>
        </mxCell>
        <mxCell id="NJD95M8vQ93x0_-I2Khb-3" value="First time login?" style="strokeWidth=1;html=1;shape=mxgraph.flowchart.decision;whiteSpace=wrap;" vertex="1" parent="1">
          <mxGeometry x="390" y="590" width="100" height="100" as="geometry" />
        </mxCell>
        <mxCell id="NJD95M8vQ93x0_-I2Khb-4" value="Request Code" style="shape=parallelogram;html=1;strokeWidth=1;perimeter=parallelogramPerimeter;whiteSpace=wrap;rounded=1;arcSize=12;size=0.23;" vertex="1" parent="1">
          <mxGeometry x="370" y="720" width="140" height="60" as="geometry" />
        </mxCell>
        <mxCell id="NJD95M8vQ93x0_-I2Khb-9" style="edgeStyle=orthogonalEdgeStyle;rounded=0;orthogonalLoop=1;jettySize=auto;html=1;entryX=0.5;entryY=0;entryDx=0;entryDy=0;" edge="1" parent="1" source="NJD95M8vQ93x0_-I2Khb-6" target="NJD95M8vQ93x0_-I2Khb-1">
          <mxGeometry relative="1" as="geometry" />
        </mxCell>
        <mxCell id="NJD95M8vQ93x0_-I2Khb-13" value="Yes" style="edgeLabel;html=1;align=center;verticalAlign=middle;resizable=0;points=[];" vertex="1" connectable="0" parent="NJD95M8vQ93x0_-I2Khb-9">
          <mxGeometry x="-0.475" y="3" relative="1" as="geometry">
            <mxPoint x="7" y="19" as="offset" />
          </mxGeometry>
        </mxCell>
        <mxCell id="NJD95M8vQ93x0_-I2Khb-6" value="Is code correct?" style="strokeWidth=1;html=1;shape=mxgraph.flowchart.decision;whiteSpace=wrap;" vertex="1" parent="1">
          <mxGeometry x="390" y="820" width="100" height="100" as="geometry" />
        </mxCell>
        <mxCell id="NJD95M8vQ93x0_-I2Khb-7" style="edgeStyle=orthogonalEdgeStyle;rounded=0;orthogonalLoop=1;jettySize=auto;html=1;entryX=0.5;entryY=0;entryDx=0;entryDy=0;entryPerimeter=0;" edge="1" parent="1" source="NJD95M8vQ93x0_-I2Khb-4" target="NJD95M8vQ93x0_-I2Khb-6">
          <mxGeometry relative="1" as="geometry" />
        </mxCell>
        <mxCell id="NJD95M8vQ93x0_-I2Khb-8" style="edgeStyle=orthogonalEdgeStyle;rounded=0;orthogonalLoop=1;jettySize=auto;html=1;entryX=0.921;entryY=0.4;entryDx=0;entryDy=0;entryPerimeter=0;" edge="1" parent="1" source="NJD95M8vQ93x0_-I2Khb-6" target="NJD95M8vQ93x0_-I2Khb-4">
          <mxGeometry relative="1" as="geometry">
            <Array as="points">
              <mxPoint x="540" y="870" />
              <mxPoint x="540" y="744" />
            </Array>
          </mxGeometry>
        </mxCell>
        <mxCell id="NJD95M8vQ93x0_-I2Khb-12" value="No" style="edgeLabel;html=1;align=center;verticalAlign=middle;resizable=0;points=[];" vertex="1" connectable="0" parent="NJD95M8vQ93x0_-I2Khb-8">
          <mxGeometry x="-0.0233" y="-1" relative="1" as="geometry">
            <mxPoint x="9" as="offset" />
          </mxGeometry>
        </mxCell>
      </root>
    </mxGraphModel>
  </diagram>
  <diagram id="xrX0kt8LNmWPwsbkVcGR" name="Register">
    <mxGraphModel dx="1114" dy="656" grid="1" gridSize="10" guides="1" tooltips="1" connect="1" arrows="1" fold="1" page="1" pageScale="1" pageWidth="1169" pageHeight="827" math="0" shadow="0">
      <root>
        <mxCell id="0" />
        <mxCell id="1" parent="0" />
        <mxCell id="M9awglmIMMaG5F3pW17u-19" style="edgeStyle=orthogonalEdgeStyle;rounded=0;orthogonalLoop=1;jettySize=auto;html=1;entryX=0.5;entryY=0;entryDx=0;entryDy=0;" parent="1" source="M9awglmIMMaG5F3pW17u-1" target="M9awglmIMMaG5F3pW17u-18" edge="1">
          <mxGeometry relative="1" as="geometry" />
        </mxCell>
        <mxCell id="M9awglmIMMaG5F3pW17u-1" value="Register" style="rounded=1;whiteSpace=wrap;html=1;fontSize=12;glass=0;strokeWidth=1;shadow=0;" parent="1" vertex="1">
          <mxGeometry x="380" y="70" width="120" height="40" as="geometry" />
        </mxCell>
        <mxCell id="M9awglmIMMaG5F3pW17u-7" style="edgeStyle=orthogonalEdgeStyle;rounded=0;orthogonalLoop=1;jettySize=auto;html=1;entryX=0.5;entryY=0;entryDx=0;entryDy=0;" parent="1" source="M9awglmIMMaG5F3pW17u-3" target="M9awglmIMMaG5F3pW17u-4" edge="1">
          <mxGeometry relative="1" as="geometry" />
        </mxCell>
        <mxCell id="M9awglmIMMaG5F3pW17u-3" value="Insert Name" style="shape=parallelogram;html=1;strokeWidth=1;perimeter=parallelogramPerimeter;whiteSpace=wrap;rounded=1;arcSize=12;size=0.23;" parent="1" vertex="1">
          <mxGeometry x="370" y="230" width="140" height="50" as="geometry" />
        </mxCell>
        <mxCell id="M9awglmIMMaG5F3pW17u-8" style="edgeStyle=orthogonalEdgeStyle;rounded=0;orthogonalLoop=1;jettySize=auto;html=1;exitX=0.5;exitY=1;exitDx=0;exitDy=0;entryX=0.5;entryY=0;entryDx=0;entryDy=0;" parent="1" source="M9awglmIMMaG5F3pW17u-4" target="M9awglmIMMaG5F3pW17u-5" edge="1">
          <mxGeometry relative="1" as="geometry" />
        </mxCell>
        <mxCell id="M9awglmIMMaG5F3pW17u-4" value="Insert Email" style="shape=parallelogram;html=1;strokeWidth=1;perimeter=parallelogramPerimeter;whiteSpace=wrap;rounded=1;arcSize=12;size=0.23;" parent="1" vertex="1">
          <mxGeometry x="370" y="310" width="140" height="50" as="geometry" />
        </mxCell>
        <mxCell id="M9awglmIMMaG5F3pW17u-5" value="Insert Phone" style="shape=parallelogram;html=1;strokeWidth=1;perimeter=parallelogramPerimeter;whiteSpace=wrap;rounded=1;arcSize=12;size=0.23;" parent="1" vertex="1">
          <mxGeometry x="370" y="390" width="140" height="50" as="geometry" />
        </mxCell>
        <mxCell id="M9awglmIMMaG5F3pW17u-6" value="Insert Extra Data" style="shape=parallelogram;html=1;strokeWidth=1;perimeter=parallelogramPerimeter;whiteSpace=wrap;rounded=1;arcSize=12;size=0.23;" parent="1" vertex="1">
          <mxGeometry x="360" y="480" width="140" height="50" as="geometry" />
        </mxCell>
        <mxCell id="M9awglmIMMaG5F3pW17u-9" style="edgeStyle=orthogonalEdgeStyle;rounded=0;orthogonalLoop=1;jettySize=auto;html=1;exitX=0.5;exitY=1;exitDx=0;exitDy=0;entryX=0.579;entryY=-0.02;entryDx=0;entryDy=0;entryPerimeter=0;" parent="1" source="M9awglmIMMaG5F3pW17u-5" target="M9awglmIMMaG5F3pW17u-6" edge="1">
          <mxGeometry relative="1" as="geometry" />
        </mxCell>
        <mxCell id="M9awglmIMMaG5F3pW17u-13" style="edgeStyle=orthogonalEdgeStyle;rounded=0;orthogonalLoop=1;jettySize=auto;html=1;entryX=1;entryY=0.5;entryDx=0;entryDy=0;" parent="1" source="M9awglmIMMaG5F3pW17u-10" target="M9awglmIMMaG5F3pW17u-4" edge="1">
          <mxGeometry relative="1" as="geometry">
            <Array as="points">
              <mxPoint x="540" y="750" />
              <mxPoint x="540" y="335" />
            </Array>
          </mxGeometry>
        </mxCell>
        <mxCell id="M9awglmIMMaG5F3pW17u-10" value="Email alredy exist?" style="strokeWidth=1;html=1;shape=mxgraph.flowchart.decision;whiteSpace=wrap;" parent="1" vertex="1">
          <mxGeometry x="390" y="700" width="100" height="100" as="geometry" />
        </mxCell>
        <mxCell id="M9awglmIMMaG5F3pW17u-16" style="edgeStyle=orthogonalEdgeStyle;rounded=0;orthogonalLoop=1;jettySize=auto;html=1;entryX=1;entryY=0.5;entryDx=0;entryDy=0;" parent="1" source="M9awglmIMMaG5F3pW17u-15" target="M9awglmIMMaG5F3pW17u-5" edge="1">
          <mxGeometry relative="1" as="geometry">
            <Array as="points">
              <mxPoint x="540" y="880" />
              <mxPoint x="540" y="415" />
            </Array>
          </mxGeometry>
        </mxCell>
        <mxCell id="M9awglmIMMaG5F3pW17u-31" style="edgeStyle=orthogonalEdgeStyle;rounded=0;orthogonalLoop=1;jettySize=auto;html=1;entryX=0.5;entryY=0;entryDx=0;entryDy=0;" parent="1" source="M9awglmIMMaG5F3pW17u-15" target="M9awglmIMMaG5F3pW17u-30" edge="1">
          <mxGeometry relative="1" as="geometry" />
        </mxCell>
        <mxCell id="bzFnrBwAGfzbYayhYh9P-1" value="No" style="edgeLabel;html=1;align=center;verticalAlign=middle;resizable=0;points=[];" vertex="1" connectable="0" parent="M9awglmIMMaG5F3pW17u-31">
          <mxGeometry x="-0.35" y="1" relative="1" as="geometry">
            <mxPoint as="offset" />
          </mxGeometry>
        </mxCell>
        <mxCell id="M9awglmIMMaG5F3pW17u-15" value="Phone alredy exist?" style="strokeWidth=1;html=1;shape=mxgraph.flowchart.decision;whiteSpace=wrap;" parent="1" vertex="1">
          <mxGeometry x="390" y="830" width="100" height="100" as="geometry" />
        </mxCell>
        <mxCell id="M9awglmIMMaG5F3pW17u-17" style="edgeStyle=orthogonalEdgeStyle;rounded=0;orthogonalLoop=1;jettySize=auto;html=1;entryX=0.5;entryY=0;entryDx=0;entryDy=0;entryPerimeter=0;" parent="1" source="M9awglmIMMaG5F3pW17u-10" target="M9awglmIMMaG5F3pW17u-15" edge="1">
          <mxGeometry relative="1" as="geometry" />
        </mxCell>
        <mxCell id="M9awglmIMMaG5F3pW17u-28" value="No" style="edgeLabel;html=1;align=center;verticalAlign=middle;resizable=0;points=[];" parent="M9awglmIMMaG5F3pW17u-17" vertex="1" connectable="0">
          <mxGeometry x="0.232" y="1" relative="1" as="geometry">
            <mxPoint x="9" as="offset" />
          </mxGeometry>
        </mxCell>
        <mxCell id="M9awglmIMMaG5F3pW17u-20" style="edgeStyle=orthogonalEdgeStyle;rounded=0;orthogonalLoop=1;jettySize=auto;html=1;entryX=0.5;entryY=0;entryDx=0;entryDy=0;" parent="1" source="M9awglmIMMaG5F3pW17u-18" target="M9awglmIMMaG5F3pW17u-3" edge="1">
          <mxGeometry relative="1" as="geometry" />
        </mxCell>
        <mxCell id="M9awglmIMMaG5F3pW17u-18" value="Insert IDCard" style="shape=parallelogram;html=1;strokeWidth=1;perimeter=parallelogramPerimeter;whiteSpace=wrap;rounded=1;arcSize=12;size=0.23;" parent="1" vertex="1">
          <mxGeometry x="370" y="150" width="140" height="50" as="geometry" />
        </mxCell>
        <mxCell id="M9awglmIMMaG5F3pW17u-24" style="edgeStyle=orthogonalEdgeStyle;rounded=0;orthogonalLoop=1;jettySize=auto;html=1;entryX=1;entryY=0.5;entryDx=0;entryDy=0;" parent="1" source="M9awglmIMMaG5F3pW17u-21" target="M9awglmIMMaG5F3pW17u-18" edge="1">
          <mxGeometry relative="1" as="geometry">
            <Array as="points">
              <mxPoint x="540" y="620" />
              <mxPoint x="540" y="175" />
            </Array>
          </mxGeometry>
        </mxCell>
        <mxCell id="M9awglmIMMaG5F3pW17u-25" value="Yes" style="edgeLabel;html=1;align=center;verticalAlign=middle;resizable=0;points=[];" parent="M9awglmIMMaG5F3pW17u-24" vertex="1" connectable="0">
          <mxGeometry x="-0.5186" y="-4" relative="1" as="geometry">
            <mxPoint x="6" y="-59" as="offset" />
          </mxGeometry>
        </mxCell>
        <mxCell id="M9awglmIMMaG5F3pW17u-26" value="" style="edgeStyle=orthogonalEdgeStyle;rounded=0;orthogonalLoop=1;jettySize=auto;html=1;" parent="1" source="M9awglmIMMaG5F3pW17u-21" target="M9awglmIMMaG5F3pW17u-10" edge="1">
          <mxGeometry relative="1" as="geometry" />
        </mxCell>
        <mxCell id="M9awglmIMMaG5F3pW17u-21" value="IDCard alredy exist?" style="strokeWidth=1;html=1;shape=mxgraph.flowchart.decision;whiteSpace=wrap;" parent="1" vertex="1">
          <mxGeometry x="390" y="570" width="100" height="100" as="geometry" />
        </mxCell>
        <mxCell id="M9awglmIMMaG5F3pW17u-22" style="edgeStyle=orthogonalEdgeStyle;rounded=0;orthogonalLoop=1;jettySize=auto;html=1;entryX=0.5;entryY=0;entryDx=0;entryDy=0;entryPerimeter=0;" parent="1" source="M9awglmIMMaG5F3pW17u-6" target="M9awglmIMMaG5F3pW17u-21" edge="1">
          <mxGeometry relative="1" as="geometry">
            <Array as="points">
              <mxPoint x="440" y="540" />
              <mxPoint x="440" y="540" />
            </Array>
          </mxGeometry>
        </mxCell>
        <mxCell id="IOoR9BEfXmduoCwRYfGM-1" value="Submit" style="edgeLabel;html=1;align=center;verticalAlign=middle;resizable=0;points=[];" parent="M9awglmIMMaG5F3pW17u-22" vertex="1" connectable="0">
          <mxGeometry x="-0.1" y="-2" relative="1" as="geometry">
            <mxPoint as="offset" />
          </mxGeometry>
        </mxCell>
        <mxCell id="M9awglmIMMaG5F3pW17u-23" style="edgeStyle=orthogonalEdgeStyle;rounded=0;orthogonalLoop=1;jettySize=auto;html=1;exitX=0.5;exitY=1;exitDx=0;exitDy=0;exitPerimeter=0;entryX=0.5;entryY=0;entryDx=0;entryDy=0;entryPerimeter=0;" parent="1" source="M9awglmIMMaG5F3pW17u-21" target="M9awglmIMMaG5F3pW17u-10" edge="1">
          <mxGeometry relative="1" as="geometry" />
        </mxCell>
        <mxCell id="M9awglmIMMaG5F3pW17u-27" value="No" style="edgeLabel;html=1;align=center;verticalAlign=middle;resizable=0;points=[];" parent="M9awglmIMMaG5F3pW17u-23" vertex="1" connectable="0">
          <mxGeometry x="-0.1467" relative="1" as="geometry">
            <mxPoint x="10" as="offset" />
          </mxGeometry>
        </mxCell>
        <mxCell id="M9awglmIMMaG5F3pW17u-32" style="edgeStyle=orthogonalEdgeStyle;rounded=0;orthogonalLoop=1;jettySize=auto;html=1;entryX=0.5;entryY=0;entryDx=0;entryDy=0;" parent="1" source="M9awglmIMMaG5F3pW17u-30" target="M9awglmIMMaG5F3pW17u-33" edge="1">
          <mxGeometry relative="1" as="geometry">
            <mxPoint x="440" y="1090" as="targetPoint" />
          </mxGeometry>
        </mxCell>
        <mxCell id="M9awglmIMMaG5F3pW17u-30" value="Send Verificatión Code" style="rounded=1;whiteSpace=wrap;html=1;absoluteArcSize=1;arcSize=14;strokeWidth=1;" parent="1" vertex="1">
          <mxGeometry x="370" y="970" width="140" height="50" as="geometry" />
        </mxCell>
        <mxCell id="M9awglmIMMaG5F3pW17u-35" style="edgeStyle=orthogonalEdgeStyle;rounded=0;orthogonalLoop=1;jettySize=auto;html=1;entryX=0.5;entryY=0;entryDx=0;entryDy=0;" parent="1" source="M9awglmIMMaG5F3pW17u-33" target="M9awglmIMMaG5F3pW17u-34" edge="1">
          <mxGeometry relative="1" as="geometry" />
        </mxCell>
        <mxCell id="M9awglmIMMaG5F3pW17u-33" value="Send Welcome Coupon" style="rounded=1;whiteSpace=wrap;html=1;absoluteArcSize=1;arcSize=14;strokeWidth=1;" parent="1" vertex="1">
          <mxGeometry x="370" y="1060" width="140" height="50" as="geometry" />
        </mxCell>
        <mxCell id="M9awglmIMMaG5F3pW17u-34" value="Login" style="rounded=1;whiteSpace=wrap;html=1;absoluteArcSize=1;arcSize=14;strokeWidth=1;" parent="1" vertex="1">
          <mxGeometry x="370" y="1150" width="140" height="50" as="geometry" />
        </mxCell>
      </root>
    </mxGraphModel>
  </diagram>
  <diagram id="_f0p1DK1H1kFU409MzOo" name="Password recovery">
    <mxGraphModel dx="1114" dy="656" grid="1" gridSize="10" guides="1" tooltips="1" connect="1" arrows="1" fold="1" page="1" pageScale="1" pageWidth="1169" pageHeight="827" math="0" shadow="0">
      <root>
        <mxCell id="0" />
        <mxCell id="1" parent="0" />
        <mxCell id="UJgdB1XQL1k392XNLSgJ-2" style="edgeStyle=orthogonalEdgeStyle;rounded=0;orthogonalLoop=1;jettySize=auto;html=1;entryX=0.5;entryY=0;entryDx=0;entryDy=0;" parent="1" source="rv0jPUvvy89jmApZHi78-1" target="UJgdB1XQL1k392XNLSgJ-1" edge="1">
          <mxGeometry relative="1" as="geometry" />
        </mxCell>
        <mxCell id="rv0jPUvvy89jmApZHi78-1" value="Password recovery" style="rounded=1;whiteSpace=wrap;html=1;fontSize=12;glass=0;strokeWidth=1;shadow=0;" parent="1" vertex="1">
          <mxGeometry x="380" y="70" width="120" height="40" as="geometry" />
        </mxCell>
        <mxCell id="UJgdB1XQL1k392XNLSgJ-1" value="Insert email" style="shape=parallelogram;html=1;strokeWidth=1;perimeter=parallelogramPerimeter;whiteSpace=wrap;rounded=1;arcSize=12;size=0.23;" parent="1" vertex="1">
          <mxGeometry x="380" y="150" width="120" height="50" as="geometry" />
        </mxCell>
        <mxCell id="XMWtzui4SsJDfp1Gv8h8-4" style="edgeStyle=orthogonalEdgeStyle;rounded=0;orthogonalLoop=1;jettySize=auto;html=1;entryX=1;entryY=0.5;entryDx=0;entryDy=0;" parent="1" source="XMWtzui4SsJDfp1Gv8h8-1" target="UJgdB1XQL1k392XNLSgJ-1" edge="1">
          <mxGeometry relative="1" as="geometry">
            <Array as="points">
              <mxPoint x="540" y="300" />
              <mxPoint x="540" y="175" />
            </Array>
          </mxGeometry>
        </mxCell>
        <mxCell id="XMWtzui4SsJDfp1Gv8h8-5" value="No" style="edgeLabel;html=1;align=center;verticalAlign=middle;resizable=0;points=[];" parent="XMWtzui4SsJDfp1Gv8h8-4" vertex="1" connectable="0">
          <mxGeometry x="-0.021" y="-4" relative="1" as="geometry">
            <mxPoint as="offset" />
          </mxGeometry>
        </mxCell>
        <mxCell id="XMWtzui4SsJDfp1Gv8h8-6" style="edgeStyle=orthogonalEdgeStyle;rounded=0;orthogonalLoop=1;jettySize=auto;html=1;entryX=0.5;entryY=0;entryDx=0;entryDy=0;" parent="1" source="XMWtzui4SsJDfp1Gv8h8-1" target="XMWtzui4SsJDfp1Gv8h8-9" edge="1">
          <mxGeometry relative="1" as="geometry">
            <mxPoint x="440" y="391" as="targetPoint" />
          </mxGeometry>
        </mxCell>
        <mxCell id="7795LSeOEDaDANYVehV8-3" value="Yes" style="edgeLabel;html=1;align=center;verticalAlign=middle;resizable=0;points=[];" parent="XMWtzui4SsJDfp1Gv8h8-6" vertex="1" connectable="0">
          <mxGeometry x="0.36" y="1" relative="1" as="geometry">
            <mxPoint x="9" as="offset" />
          </mxGeometry>
        </mxCell>
        <mxCell id="XMWtzui4SsJDfp1Gv8h8-1" value="Email exist?" style="strokeWidth=1;html=1;shape=mxgraph.flowchart.decision;whiteSpace=wrap;" parent="1" vertex="1">
          <mxGeometry x="390" y="250" width="100" height="100" as="geometry" />
        </mxCell>
        <mxCell id="XMWtzui4SsJDfp1Gv8h8-2" style="edgeStyle=orthogonalEdgeStyle;rounded=0;orthogonalLoop=1;jettySize=auto;html=1;entryX=0.5;entryY=0;entryDx=0;entryDy=0;entryPerimeter=0;" parent="1" source="UJgdB1XQL1k392XNLSgJ-1" target="XMWtzui4SsJDfp1Gv8h8-1" edge="1">
          <mxGeometry relative="1" as="geometry" />
        </mxCell>
        <mxCell id="XMWtzui4SsJDfp1Gv8h8-3" value="Submit" style="edgeLabel;html=1;align=center;verticalAlign=middle;resizable=0;points=[];" parent="XMWtzui4SsJDfp1Gv8h8-2" vertex="1" connectable="0">
          <mxGeometry x="0.08" relative="1" as="geometry">
            <mxPoint as="offset" />
          </mxGeometry>
        </mxCell>
        <mxCell id="7795LSeOEDaDANYVehV8-2" style="edgeStyle=orthogonalEdgeStyle;rounded=0;orthogonalLoop=1;jettySize=auto;html=1;entryX=0.5;entryY=0;entryDx=0;entryDy=0;" parent="1" source="XMWtzui4SsJDfp1Gv8h8-9" target="7795LSeOEDaDANYVehV8-1" edge="1">
          <mxGeometry relative="1" as="geometry" />
        </mxCell>
        <mxCell id="XMWtzui4SsJDfp1Gv8h8-9" value="Send Code" style="rounded=1;whiteSpace=wrap;html=1;absoluteArcSize=1;arcSize=14;strokeWidth=1;" parent="1" vertex="1">
          <mxGeometry x="390" y="380" width="100" height="50" as="geometry" />
        </mxCell>
        <mxCell id="7795LSeOEDaDANYVehV8-1" value="Insert code" style="shape=parallelogram;html=1;strokeWidth=1;perimeter=parallelogramPerimeter;whiteSpace=wrap;rounded=1;arcSize=12;size=0.23;" parent="1" vertex="1">
          <mxGeometry x="380" y="460" width="120" height="50" as="geometry" />
        </mxCell>
        <mxCell id="7795LSeOEDaDANYVehV8-7" style="edgeStyle=orthogonalEdgeStyle;rounded=0;orthogonalLoop=1;jettySize=auto;html=1;entryX=1;entryY=0.5;entryDx=0;entryDy=0;" parent="1" source="7795LSeOEDaDANYVehV8-4" target="7795LSeOEDaDANYVehV8-1" edge="1">
          <mxGeometry relative="1" as="geometry">
            <Array as="points">
              <mxPoint x="530" y="600" />
              <mxPoint x="530" y="485" />
            </Array>
          </mxGeometry>
        </mxCell>
        <mxCell id="7795LSeOEDaDANYVehV8-8" value="No" style="edgeLabel;html=1;align=center;verticalAlign=middle;resizable=0;points=[];" parent="7795LSeOEDaDANYVehV8-7" vertex="1" connectable="0">
          <mxGeometry x="0.0262" y="-3" relative="1" as="geometry">
            <mxPoint as="offset" />
          </mxGeometry>
        </mxCell>
        <mxCell id="7795LSeOEDaDANYVehV8-4" value="Is code correct?" style="strokeWidth=1;html=1;shape=mxgraph.flowchart.decision;whiteSpace=wrap;" parent="1" vertex="1">
          <mxGeometry x="390" y="550" width="100" height="100" as="geometry" />
        </mxCell>
        <mxCell id="7795LSeOEDaDANYVehV8-5" style="edgeStyle=orthogonalEdgeStyle;rounded=0;orthogonalLoop=1;jettySize=auto;html=1;entryX=0.5;entryY=0;entryDx=0;entryDy=0;entryPerimeter=0;" parent="1" source="7795LSeOEDaDANYVehV8-1" target="7795LSeOEDaDANYVehV8-4" edge="1">
          <mxGeometry relative="1" as="geometry" />
        </mxCell>
        <mxCell id="7795LSeOEDaDANYVehV8-6" value="Submit" style="edgeLabel;html=1;align=center;verticalAlign=middle;resizable=0;points=[];" parent="7795LSeOEDaDANYVehV8-5" vertex="1" connectable="0">
          <mxGeometry x="-0.35" y="3" relative="1" as="geometry">
            <mxPoint as="offset" />
          </mxGeometry>
        </mxCell>
        <mxCell id="7795LSeOEDaDANYVehV8-10" style="edgeStyle=orthogonalEdgeStyle;rounded=0;orthogonalLoop=1;jettySize=auto;html=1;entryX=1;entryY=0.25;entryDx=0;entryDy=0;" parent="1" source="7795LSeOEDaDANYVehV8-9" target="XMWtzui4SsJDfp1Gv8h8-9" edge="1">
          <mxGeometry relative="1" as="geometry">
            <Array as="points">
              <mxPoint x="540" y="730" />
              <mxPoint x="540" y="393" />
            </Array>
          </mxGeometry>
        </mxCell>
        <mxCell id="7795LSeOEDaDANYVehV8-11" value="No" style="edgeLabel;html=1;align=center;verticalAlign=middle;resizable=0;points=[];" parent="7795LSeOEDaDANYVehV8-10" vertex="1" connectable="0">
          <mxGeometry x="-0.4331" y="2" relative="1" as="geometry">
            <mxPoint as="offset" />
          </mxGeometry>
        </mxCell>
        <mxCell id="7795LSeOEDaDANYVehV8-15" style="edgeStyle=orthogonalEdgeStyle;rounded=0;orthogonalLoop=1;jettySize=auto;html=1;entryX=0.5;entryY=0;entryDx=0;entryDy=0;" parent="1" source="7795LSeOEDaDANYVehV8-9" target="7795LSeOEDaDANYVehV8-14" edge="1">
          <mxGeometry relative="1" as="geometry" />
        </mxCell>
        <mxCell id="DAEsyM37BmtgZwdJva09-1" value="Yes" style="edgeLabel;html=1;align=center;verticalAlign=middle;resizable=0;points=[];" vertex="1" connectable="0" parent="7795LSeOEDaDANYVehV8-15">
          <mxGeometry x="-0.72" y="1" relative="1" as="geometry">
            <mxPoint as="offset" />
          </mxGeometry>
        </mxCell>
        <mxCell id="7795LSeOEDaDANYVehV8-9" value="Is the code still available?" style="strokeWidth=1;html=1;shape=mxgraph.flowchart.decision;whiteSpace=wrap;" parent="1" vertex="1">
          <mxGeometry x="390" y="680" width="100" height="100" as="geometry" />
        </mxCell>
        <mxCell id="7795LSeOEDaDANYVehV8-12" style="edgeStyle=orthogonalEdgeStyle;rounded=0;orthogonalLoop=1;jettySize=auto;html=1;entryX=0.5;entryY=0;entryDx=0;entryDy=0;entryPerimeter=0;" parent="1" source="7795LSeOEDaDANYVehV8-4" target="7795LSeOEDaDANYVehV8-9" edge="1">
          <mxGeometry relative="1" as="geometry" />
        </mxCell>
        <mxCell id="7795LSeOEDaDANYVehV8-13" value="Yes" style="edgeLabel;html=1;align=center;verticalAlign=middle;resizable=0;points=[];" parent="7795LSeOEDaDANYVehV8-12" vertex="1" connectable="0">
          <mxGeometry x="0.28" y="3" relative="1" as="geometry">
            <mxPoint as="offset" />
          </mxGeometry>
        </mxCell>
        <mxCell id="7795LSeOEDaDANYVehV8-17" style="edgeStyle=orthogonalEdgeStyle;rounded=0;orthogonalLoop=1;jettySize=auto;html=1;entryX=0.5;entryY=0;entryDx=0;entryDy=0;" parent="1" source="7795LSeOEDaDANYVehV8-14" target="7795LSeOEDaDANYVehV8-16" edge="1">
          <mxGeometry relative="1" as="geometry" />
        </mxCell>
        <mxCell id="7795LSeOEDaDANYVehV8-14" value="Insert&amp;nbsp;&lt;div&gt;new password&lt;/div&gt;" style="shape=parallelogram;html=1;strokeWidth=1;perimeter=parallelogramPerimeter;whiteSpace=wrap;rounded=1;arcSize=12;size=0.23;" parent="1" vertex="1">
          <mxGeometry x="380" y="810" width="120" height="50" as="geometry" />
        </mxCell>
        <mxCell id="7795LSeOEDaDANYVehV8-16" value="Confirm the&lt;div&gt;new password&lt;/div&gt;" style="shape=parallelogram;html=1;strokeWidth=1;perimeter=parallelogramPerimeter;whiteSpace=wrap;rounded=1;arcSize=12;size=0.23;" parent="1" vertex="1">
          <mxGeometry x="380" y="890" width="120" height="50" as="geometry" />
        </mxCell>
        <mxCell id="7795LSeOEDaDANYVehV8-20" style="edgeStyle=orthogonalEdgeStyle;rounded=0;orthogonalLoop=1;jettySize=auto;html=1;entryX=1;entryY=0.5;entryDx=0;entryDy=0;" parent="1" source="7795LSeOEDaDANYVehV8-18" target="7795LSeOEDaDANYVehV8-16" edge="1">
          <mxGeometry relative="1" as="geometry">
            <Array as="points">
              <mxPoint x="560" y="1040" />
              <mxPoint x="560" y="915" />
            </Array>
          </mxGeometry>
        </mxCell>
        <mxCell id="7795LSeOEDaDANYVehV8-21" value="No" style="edgeLabel;html=1;align=center;verticalAlign=middle;resizable=0;points=[];" parent="7795LSeOEDaDANYVehV8-20" vertex="1" connectable="0">
          <mxGeometry x="-0.1957" y="-3" relative="1" as="geometry">
            <mxPoint as="offset" />
          </mxGeometry>
        </mxCell>
        <mxCell id="7795LSeOEDaDANYVehV8-24" style="edgeStyle=orthogonalEdgeStyle;rounded=0;orthogonalLoop=1;jettySize=auto;html=1;entryX=0.5;entryY=0;entryDx=0;entryDy=0;" parent="1" source="7795LSeOEDaDANYVehV8-18" target="7795LSeOEDaDANYVehV8-23" edge="1">
          <mxGeometry relative="1" as="geometry" />
        </mxCell>
        <mxCell id="7795LSeOEDaDANYVehV8-25" value="Yes" style="edgeLabel;html=1;align=center;verticalAlign=middle;resizable=0;points=[];" parent="7795LSeOEDaDANYVehV8-24" vertex="1" connectable="0">
          <mxGeometry x="0.36" y="1" relative="1" as="geometry">
            <mxPoint as="offset" />
          </mxGeometry>
        </mxCell>
        <mxCell id="7795LSeOEDaDANYVehV8-18" value="The new password&amp;nbsp;&lt;div&gt;an the confirmation&amp;nbsp;&lt;/div&gt;&lt;div&gt;are the same?&lt;/div&gt;" style="strokeWidth=1;html=1;shape=mxgraph.flowchart.decision;whiteSpace=wrap;" parent="1" vertex="1">
          <mxGeometry x="360" y="980" width="160" height="110" as="geometry" />
        </mxCell>
        <mxCell id="7795LSeOEDaDANYVehV8-19" style="edgeStyle=orthogonalEdgeStyle;rounded=0;orthogonalLoop=1;jettySize=auto;html=1;entryX=0.5;entryY=0;entryDx=0;entryDy=0;entryPerimeter=0;" parent="1" source="7795LSeOEDaDANYVehV8-16" target="7795LSeOEDaDANYVehV8-18" edge="1">
          <mxGeometry relative="1" as="geometry" />
        </mxCell>
        <mxCell id="7795LSeOEDaDANYVehV8-22" value="Submit" style="edgeLabel;html=1;align=center;verticalAlign=middle;resizable=0;points=[];" parent="7795LSeOEDaDANYVehV8-19" vertex="1" connectable="0">
          <mxGeometry x="-0.3" y="5" relative="1" as="geometry">
            <mxPoint as="offset" />
          </mxGeometry>
        </mxCell>
        <mxCell id="7795LSeOEDaDANYVehV8-27" style="edgeStyle=orthogonalEdgeStyle;rounded=0;orthogonalLoop=1;jettySize=auto;html=1;entryX=0.5;entryY=0;entryDx=0;entryDy=0;" parent="1" source="7795LSeOEDaDANYVehV8-23" target="7795LSeOEDaDANYVehV8-26" edge="1">
          <mxGeometry relative="1" as="geometry" />
        </mxCell>
        <mxCell id="7795LSeOEDaDANYVehV8-23" value="Upload password" style="rounded=1;whiteSpace=wrap;html=1;absoluteArcSize=1;arcSize=14;strokeWidth=1;" parent="1" vertex="1">
          <mxGeometry x="385" y="1120" width="110" height="50" as="geometry" />
        </mxCell>
        <mxCell id="7795LSeOEDaDANYVehV8-26" value="Login" style="rounded=1;whiteSpace=wrap;html=1;absoluteArcSize=1;arcSize=14;strokeWidth=1;" parent="1" vertex="1">
          <mxGeometry x="385" y="1200" width="110" height="50" as="geometry" />
        </mxCell>
      </root>
    </mxGraphModel>
  </diagram>
  <diagram id="TtUxapERvOr36jxoYQbP" name="Manage Events">
    <mxGraphModel dx="969" dy="570" grid="1" gridSize="10" guides="1" tooltips="1" connect="1" arrows="1" fold="1" page="1" pageScale="1" pageWidth="1169" pageHeight="827" math="0" shadow="0">
      <root>
        <mxCell id="0" />
        <mxCell id="1" parent="0" />
        <mxCell id="O3iVLAfSBRlQ7hlemg1m-1" value="Home" style="rounded=1;whiteSpace=wrap;html=1;absoluteArcSize=1;arcSize=14;strokeWidth=1;" vertex="1" parent="1">
          <mxGeometry x="510" y="60" width="100" height="40" as="geometry" />
        </mxCell>
        <mxCell id="O3iVLAfSBRlQ7hlemg1m-4" style="edgeStyle=orthogonalEdgeStyle;rounded=0;orthogonalLoop=1;jettySize=auto;html=1;" edge="1" parent="1" source="O3iVLAfSBRlQ7hlemg1m-2">
          <mxGeometry relative="1" as="geometry">
            <mxPoint x="360" y="250" as="targetPoint" />
            <Array as="points">
              <mxPoint x="360" y="190" />
            </Array>
          </mxGeometry>
        </mxCell>
        <mxCell id="O3iVLAfSBRlQ7hlemg1m-5" value="Serach Event" style="edgeLabel;html=1;align=center;verticalAlign=middle;resizable=0;points=[];" vertex="1" connectable="0" parent="O3iVLAfSBRlQ7hlemg1m-4">
          <mxGeometry x="0.0919" y="-4" relative="1" as="geometry">
            <mxPoint x="20" as="offset" />
          </mxGeometry>
        </mxCell>
        <mxCell id="O3iVLAfSBRlQ7hlemg1m-6" style="edgeStyle=orthogonalEdgeStyle;rounded=0;orthogonalLoop=1;jettySize=auto;html=1;entryX=0.5;entryY=0;entryDx=0;entryDy=0;" edge="1" parent="1" source="O3iVLAfSBRlQ7hlemg1m-2" target="O3iVLAfSBRlQ7hlemg1m-9">
          <mxGeometry relative="1" as="geometry">
            <mxPoint x="760" y="240" as="targetPoint" />
            <Array as="points">
              <mxPoint x="760" y="190" />
            </Array>
          </mxGeometry>
        </mxCell>
        <mxCell id="O3iVLAfSBRlQ7hlemg1m-7" value="Add Event" style="edgeLabel;html=1;align=center;verticalAlign=middle;resizable=0;points=[];" vertex="1" connectable="0" parent="O3iVLAfSBRlQ7hlemg1m-6">
          <mxGeometry x="0.0018" y="4" relative="1" as="geometry">
            <mxPoint x="-20" as="offset" />
          </mxGeometry>
        </mxCell>
        <mxCell id="O3iVLAfSBRlQ7hlemg1m-2" value="Action Selected" style="strokeWidth=1;html=1;shape=mxgraph.flowchart.decision;whiteSpace=wrap;" vertex="1" parent="1">
          <mxGeometry x="510" y="140" width="100" height="100" as="geometry" />
        </mxCell>
        <mxCell id="O3iVLAfSBRlQ7hlemg1m-3" style="edgeStyle=orthogonalEdgeStyle;rounded=0;orthogonalLoop=1;jettySize=auto;html=1;entryX=0.5;entryY=0;entryDx=0;entryDy=0;entryPerimeter=0;strokeWidth=1;" edge="1" parent="1" source="O3iVLAfSBRlQ7hlemg1m-1" target="O3iVLAfSBRlQ7hlemg1m-2">
          <mxGeometry relative="1" as="geometry" />
        </mxCell>
        <mxCell id="FDi3i1afYAXO18EitkCs-1" value="General List" style="edgeLabel;html=1;align=center;verticalAlign=middle;resizable=0;points=[];" vertex="1" connectable="0" parent="O3iVLAfSBRlQ7hlemg1m-3">
          <mxGeometry x="-0.0583" y="-2" relative="1" as="geometry">
            <mxPoint as="offset" />
          </mxGeometry>
        </mxCell>
        <mxCell id="O3iVLAfSBRlQ7hlemg1m-8" value="See event details" style="rounded=1;whiteSpace=wrap;html=1;absoluteArcSize=1;arcSize=14;strokeWidth=1;" vertex="1" parent="1">
          <mxGeometry x="310" y="350" width="100" height="40" as="geometry" />
        </mxCell>
        <mxCell id="O3iVLAfSBRlQ7hlemg1m-10" style="edgeStyle=orthogonalEdgeStyle;rounded=0;orthogonalLoop=1;jettySize=auto;html=1;entryX=0.5;entryY=0;entryDx=0;entryDy=0;entryPerimeter=0;" edge="1" parent="1" source="O3iVLAfSBRlQ7hlemg1m-9" target="O3iVLAfSBRlQ7hlemg1m-26">
          <mxGeometry relative="1" as="geometry">
            <mxPoint x="760" y="309.9999999999999" as="targetPoint" />
          </mxGeometry>
        </mxCell>
        <mxCell id="O3iVLAfSBRlQ7hlemg1m-30" value="Submit" style="edgeLabel;html=1;align=center;verticalAlign=middle;resizable=0;points=[];" vertex="1" connectable="0" parent="O3iVLAfSBRlQ7hlemg1m-10">
          <mxGeometry x="0.1014" y="-1" relative="1" as="geometry">
            <mxPoint as="offset" />
          </mxGeometry>
        </mxCell>
        <mxCell id="O3iVLAfSBRlQ7hlemg1m-9" value="Insert Event&amp;nbsp;&lt;div&gt;Data&lt;/div&gt;" style="shape=parallelogram;html=1;strokeWidth=1;perimeter=parallelogramPerimeter;whiteSpace=wrap;rounded=1;arcSize=12;size=0.23;" vertex="1" parent="1">
          <mxGeometry x="700" y="240" width="120" height="40" as="geometry" />
        </mxCell>
        <mxCell id="O3iVLAfSBRlQ7hlemg1m-27" style="edgeStyle=orthogonalEdgeStyle;rounded=0;orthogonalLoop=1;jettySize=auto;html=1;entryX=1;entryY=0.25;entryDx=0;entryDy=0;" edge="1" parent="1" source="O3iVLAfSBRlQ7hlemg1m-26" target="O3iVLAfSBRlQ7hlemg1m-9">
          <mxGeometry relative="1" as="geometry">
            <Array as="points">
              <mxPoint x="850" y="364" />
              <mxPoint x="850" y="251" />
            </Array>
          </mxGeometry>
        </mxCell>
        <mxCell id="O3iVLAfSBRlQ7hlemg1m-31" value="No" style="edgeLabel;html=1;align=center;verticalAlign=middle;resizable=0;points=[];" vertex="1" connectable="0" parent="O3iVLAfSBRlQ7hlemg1m-27">
          <mxGeometry x="-0.0969" y="-3" relative="1" as="geometry">
            <mxPoint as="offset" />
          </mxGeometry>
        </mxCell>
        <mxCell id="O3iVLAfSBRlQ7hlemg1m-28" style="edgeStyle=orthogonalEdgeStyle;rounded=0;orthogonalLoop=1;jettySize=auto;html=1;entryX=0.5;entryY=0;entryDx=0;entryDy=0;" edge="1" parent="1" source="O3iVLAfSBRlQ7hlemg1m-26" target="O3iVLAfSBRlQ7hlemg1m-29">
          <mxGeometry relative="1" as="geometry">
            <mxPoint x="760" y="439.9999999999999" as="targetPoint" />
          </mxGeometry>
        </mxCell>
        <mxCell id="O3iVLAfSBRlQ7hlemg1m-32" value="Yes" style="edgeLabel;html=1;align=center;verticalAlign=middle;resizable=0;points=[];" vertex="1" connectable="0" parent="O3iVLAfSBRlQ7hlemg1m-28">
          <mxGeometry x="-0.4394" y="-2" relative="1" as="geometry">
            <mxPoint as="offset" />
          </mxGeometry>
        </mxCell>
        <mxCell id="O3iVLAfSBRlQ7hlemg1m-26" value="Is Data valid?" style="strokeWidth=1;html=1;shape=mxgraph.flowchart.decision;whiteSpace=wrap;" vertex="1" parent="1">
          <mxGeometry x="710" y="314" width="100" height="100" as="geometry" />
        </mxCell>
        <mxCell id="O3iVLAfSBRlQ7hlemg1m-57" style="edgeStyle=orthogonalEdgeStyle;rounded=0;orthogonalLoop=1;jettySize=auto;html=1;entryX=1;entryY=0.5;entryDx=0;entryDy=0;" edge="1" parent="1" source="O3iVLAfSBRlQ7hlemg1m-29" target="O3iVLAfSBRlQ7hlemg1m-1">
          <mxGeometry relative="1" as="geometry">
            <Array as="points">
              <mxPoint x="880" y="470" />
              <mxPoint x="880" y="80" />
            </Array>
          </mxGeometry>
        </mxCell>
        <mxCell id="O3iVLAfSBRlQ7hlemg1m-60" value="Succesfully" style="edgeLabel;html=1;align=center;verticalAlign=middle;resizable=0;points=[];" vertex="1" connectable="0" parent="O3iVLAfSBRlQ7hlemg1m-57">
          <mxGeometry x="-0.5333" relative="1" as="geometry">
            <mxPoint x="20" y="-70" as="offset" />
          </mxGeometry>
        </mxCell>
        <mxCell id="O3iVLAfSBRlQ7hlemg1m-29" value="Create Event" style="rounded=1;whiteSpace=wrap;html=1;absoluteArcSize=1;arcSize=14;strokeWidth=1;" vertex="1" parent="1">
          <mxGeometry x="710" y="450" width="100" height="40" as="geometry" />
        </mxCell>
        <mxCell id="O3iVLAfSBRlQ7hlemg1m-42" style="edgeStyle=orthogonalEdgeStyle;rounded=0;orthogonalLoop=1;jettySize=auto;html=1;entryX=0.5;entryY=0;entryDx=0;entryDy=0;" edge="1" parent="1" source="O3iVLAfSBRlQ7hlemg1m-39" target="O3iVLAfSBRlQ7hlemg1m-48">
          <mxGeometry relative="1" as="geometry">
            <mxPoint x="200" y="549.9999999999999" as="targetPoint" />
          </mxGeometry>
        </mxCell>
        <mxCell id="O3iVLAfSBRlQ7hlemg1m-44" value="Edit Event" style="edgeLabel;html=1;align=center;verticalAlign=middle;resizable=0;points=[];" vertex="1" connectable="0" parent="O3iVLAfSBRlQ7hlemg1m-42">
          <mxGeometry x="-0.4016" y="2" relative="1" as="geometry">
            <mxPoint as="offset" />
          </mxGeometry>
        </mxCell>
        <mxCell id="O3iVLAfSBRlQ7hlemg1m-43" style="edgeStyle=orthogonalEdgeStyle;rounded=0;orthogonalLoop=1;jettySize=auto;html=1;" edge="1" parent="1" source="O3iVLAfSBRlQ7hlemg1m-39">
          <mxGeometry relative="1" as="geometry">
            <mxPoint x="520" y="549.9999999999999" as="targetPoint" />
          </mxGeometry>
        </mxCell>
        <mxCell id="O3iVLAfSBRlQ7hlemg1m-45" value="Deactivate Event" style="edgeLabel;html=1;align=center;verticalAlign=middle;resizable=0;points=[];" vertex="1" connectable="0" parent="O3iVLAfSBRlQ7hlemg1m-43">
          <mxGeometry x="-0.3173" y="-3" relative="1" as="geometry">
            <mxPoint as="offset" />
          </mxGeometry>
        </mxCell>
        <mxCell id="O3iVLAfSBRlQ7hlemg1m-39" value="Action Selected" style="strokeWidth=1;html=1;shape=mxgraph.flowchart.decision;whiteSpace=wrap;" vertex="1" parent="1">
          <mxGeometry x="310" y="424" width="100" height="100" as="geometry" />
        </mxCell>
        <mxCell id="O3iVLAfSBRlQ7hlemg1m-40" style="edgeStyle=orthogonalEdgeStyle;rounded=0;orthogonalLoop=1;jettySize=auto;html=1;entryX=0.5;entryY=0;entryDx=0;entryDy=0;entryPerimeter=0;" edge="1" parent="1" source="O3iVLAfSBRlQ7hlemg1m-8" target="O3iVLAfSBRlQ7hlemg1m-39">
          <mxGeometry relative="1" as="geometry" />
        </mxCell>
        <mxCell id="O3iVLAfSBRlQ7hlemg1m-46" style="edgeStyle=orthogonalEdgeStyle;rounded=0;orthogonalLoop=1;jettySize=auto;html=1;entryX=0.5;entryY=0;entryDx=0;entryDy=0;entryPerimeter=0;" edge="1" parent="1" source="O3iVLAfSBRlQ7hlemg1m-48" target="O3iVLAfSBRlQ7hlemg1m-53">
          <mxGeometry relative="1" as="geometry">
            <mxPoint x="200" y="619.9999999999999" as="targetPoint" />
          </mxGeometry>
        </mxCell>
        <mxCell id="O3iVLAfSBRlQ7hlemg1m-47" value="Submit" style="edgeLabel;html=1;align=center;verticalAlign=middle;resizable=0;points=[];" vertex="1" connectable="0" parent="O3iVLAfSBRlQ7hlemg1m-46">
          <mxGeometry x="0.1014" y="-1" relative="1" as="geometry">
            <mxPoint as="offset" />
          </mxGeometry>
        </mxCell>
        <mxCell id="O3iVLAfSBRlQ7hlemg1m-48" value="Insert New&lt;div&gt;Event&amp;nbsp;&lt;span style=&quot;background-color: initial;&quot;&gt;Data&lt;/span&gt;&lt;/div&gt;" style="shape=parallelogram;html=1;strokeWidth=1;perimeter=parallelogramPerimeter;whiteSpace=wrap;rounded=1;arcSize=12;size=0.23;" vertex="1" parent="1">
          <mxGeometry x="140" y="550" width="120" height="40" as="geometry" />
        </mxCell>
        <mxCell id="O3iVLAfSBRlQ7hlemg1m-49" style="edgeStyle=orthogonalEdgeStyle;rounded=0;orthogonalLoop=1;jettySize=auto;html=1;entryX=1;entryY=0.25;entryDx=0;entryDy=0;" edge="1" parent="1" source="O3iVLAfSBRlQ7hlemg1m-53" target="O3iVLAfSBRlQ7hlemg1m-48">
          <mxGeometry relative="1" as="geometry">
            <Array as="points">
              <mxPoint x="290" y="674" />
              <mxPoint x="290" y="561" />
            </Array>
          </mxGeometry>
        </mxCell>
        <mxCell id="O3iVLAfSBRlQ7hlemg1m-50" value="No" style="edgeLabel;html=1;align=center;verticalAlign=middle;resizable=0;points=[];" vertex="1" connectable="0" parent="O3iVLAfSBRlQ7hlemg1m-49">
          <mxGeometry x="-0.0969" y="-3" relative="1" as="geometry">
            <mxPoint as="offset" />
          </mxGeometry>
        </mxCell>
        <mxCell id="O3iVLAfSBRlQ7hlemg1m-51" style="edgeStyle=orthogonalEdgeStyle;rounded=0;orthogonalLoop=1;jettySize=auto;html=1;entryX=0.5;entryY=0;entryDx=0;entryDy=0;" edge="1" parent="1" source="O3iVLAfSBRlQ7hlemg1m-53" target="O3iVLAfSBRlQ7hlemg1m-55">
          <mxGeometry relative="1" as="geometry">
            <mxPoint x="200" y="749.9999999999999" as="targetPoint" />
          </mxGeometry>
        </mxCell>
        <mxCell id="O3iVLAfSBRlQ7hlemg1m-52" value="Yes" style="edgeLabel;html=1;align=center;verticalAlign=middle;resizable=0;points=[];" vertex="1" connectable="0" parent="O3iVLAfSBRlQ7hlemg1m-51">
          <mxGeometry x="-0.4394" y="-2" relative="1" as="geometry">
            <mxPoint as="offset" />
          </mxGeometry>
        </mxCell>
        <mxCell id="O3iVLAfSBRlQ7hlemg1m-53" value="Is Data valid?" style="strokeWidth=1;html=1;shape=mxgraph.flowchart.decision;whiteSpace=wrap;" vertex="1" parent="1">
          <mxGeometry x="150" y="624" width="100" height="100" as="geometry" />
        </mxCell>
        <mxCell id="O3iVLAfSBRlQ7hlemg1m-58" style="edgeStyle=orthogonalEdgeStyle;rounded=0;orthogonalLoop=1;jettySize=auto;html=1;entryX=0;entryY=0.5;entryDx=0;entryDy=0;" edge="1" parent="1" source="O3iVLAfSBRlQ7hlemg1m-55" target="O3iVLAfSBRlQ7hlemg1m-8">
          <mxGeometry relative="1" as="geometry">
            <Array as="points">
              <mxPoint x="110" y="780" />
              <mxPoint x="110" y="370" />
            </Array>
          </mxGeometry>
        </mxCell>
        <mxCell id="O3iVLAfSBRlQ7hlemg1m-59" value="Succesfully" style="edgeLabel;html=1;align=center;verticalAlign=middle;resizable=0;points=[];" vertex="1" connectable="0" parent="O3iVLAfSBRlQ7hlemg1m-58">
          <mxGeometry x="-0.2913" y="-1" relative="1" as="geometry">
            <mxPoint x="-11" as="offset" />
          </mxGeometry>
        </mxCell>
        <mxCell id="O3iVLAfSBRlQ7hlemg1m-55" value="Edit Event" style="rounded=1;whiteSpace=wrap;html=1;absoluteArcSize=1;arcSize=14;strokeWidth=1;" vertex="1" parent="1">
          <mxGeometry x="150" y="760" width="100" height="40" as="geometry" />
        </mxCell>
        <mxCell id="O3iVLAfSBRlQ7hlemg1m-62" style="edgeStyle=orthogonalEdgeStyle;rounded=0;orthogonalLoop=1;jettySize=auto;html=1;entryX=1;entryY=0.5;entryDx=0;entryDy=0;" edge="1" parent="1" source="O3iVLAfSBRlQ7hlemg1m-61" target="O3iVLAfSBRlQ7hlemg1m-8">
          <mxGeometry relative="1" as="geometry">
            <Array as="points">
              <mxPoint x="600" y="590" />
              <mxPoint x="600" y="370" />
            </Array>
          </mxGeometry>
        </mxCell>
        <mxCell id="O3iVLAfSBRlQ7hlemg1m-63" value="No" style="edgeLabel;html=1;align=center;verticalAlign=middle;resizable=0;points=[];" vertex="1" connectable="0" parent="O3iVLAfSBRlQ7hlemg1m-62">
          <mxGeometry x="-0.2902" y="3" relative="1" as="geometry">
            <mxPoint as="offset" />
          </mxGeometry>
        </mxCell>
        <mxCell id="O3iVLAfSBRlQ7hlemg1m-64" style="edgeStyle=orthogonalEdgeStyle;rounded=0;orthogonalLoop=1;jettySize=auto;html=1;entryX=0.5;entryY=0;entryDx=0;entryDy=0;" edge="1" parent="1" source="O3iVLAfSBRlQ7hlemg1m-61" target="O3iVLAfSBRlQ7hlemg1m-65">
          <mxGeometry relative="1" as="geometry">
            <mxPoint x="520" y="680" as="targetPoint" />
          </mxGeometry>
        </mxCell>
        <mxCell id="O3iVLAfSBRlQ7hlemg1m-68" value="Yes" style="edgeLabel;html=1;align=center;verticalAlign=middle;resizable=0;points=[];" vertex="1" connectable="0" parent="O3iVLAfSBRlQ7hlemg1m-64">
          <mxGeometry x="0.0076" y="4" relative="1" as="geometry">
            <mxPoint as="offset" />
          </mxGeometry>
        </mxCell>
        <mxCell id="O3iVLAfSBRlQ7hlemg1m-61" value="Sure to&amp;nbsp;&lt;div&gt;deactivate the&lt;/div&gt;&lt;div&gt;event?&lt;/div&gt;" style="strokeWidth=1;html=1;shape=mxgraph.flowchart.decision;whiteSpace=wrap;" vertex="1" parent="1">
          <mxGeometry x="470" y="540" width="100" height="100" as="geometry" />
        </mxCell>
        <mxCell id="O3iVLAfSBRlQ7hlemg1m-66" style="edgeStyle=orthogonalEdgeStyle;rounded=0;orthogonalLoop=1;jettySize=auto;html=1;entryX=1;entryY=0.5;entryDx=0;entryDy=0;" edge="1" parent="1" source="O3iVLAfSBRlQ7hlemg1m-65" target="O3iVLAfSBRlQ7hlemg1m-8">
          <mxGeometry relative="1" as="geometry">
            <Array as="points">
              <mxPoint x="630" y="704" />
              <mxPoint x="630" y="370" />
            </Array>
          </mxGeometry>
        </mxCell>
        <mxCell id="O3iVLAfSBRlQ7hlemg1m-67" value="Succesfully" style="edgeLabel;html=1;align=center;verticalAlign=middle;resizable=0;points=[];" vertex="1" connectable="0" parent="O3iVLAfSBRlQ7hlemg1m-66">
          <mxGeometry x="-0.6683" relative="1" as="geometry">
            <mxPoint as="offset" />
          </mxGeometry>
        </mxCell>
        <mxCell id="O3iVLAfSBRlQ7hlemg1m-65" value="Deactivate Event" style="rounded=1;whiteSpace=wrap;html=1;absoluteArcSize=1;arcSize=14;strokeWidth=1;" vertex="1" parent="1">
          <mxGeometry x="470" y="684" width="100" height="40" as="geometry" />
        </mxCell>
        <mxCell id="A6qp0ZqmTbqiAQvH7LPS-2" style="edgeStyle=orthogonalEdgeStyle;rounded=0;orthogonalLoop=1;jettySize=auto;html=1;entryX=0.5;entryY=0;entryDx=0;entryDy=0;" edge="1" parent="1" source="A6qp0ZqmTbqiAQvH7LPS-1" target="O3iVLAfSBRlQ7hlemg1m-8">
          <mxGeometry relative="1" as="geometry" />
        </mxCell>
        <mxCell id="A6qp0ZqmTbqiAQvH7LPS-1" value="Filter Event" style="rounded=1;whiteSpace=wrap;html=1;absoluteArcSize=1;arcSize=14;strokeWidth=1;" vertex="1" parent="1">
          <mxGeometry x="310" y="250" width="100" height="40" as="geometry" />
        </mxCell>
        <mxCell id="A6qp0ZqmTbqiAQvH7LPS-3" value="" style="strokeWidth=1;html=1;shape=mxgraph.flowchart.annotation_2;align=left;labelPosition=right;pointerEvents=1;rotation=-180;" vertex="1" parent="1">
          <mxGeometry x="260" y="250" width="50" height="40" as="geometry" />
        </mxCell>
        <mxCell id="A6qp0ZqmTbqiAQvH7LPS-4" value="Only If need it" style="text;html=1;align=center;verticalAlign=middle;whiteSpace=wrap;rounded=0;" vertex="1" parent="1">
          <mxGeometry x="201" y="255" width="80" height="30" as="geometry" />
        </mxCell>
        <mxCell id="A6qp0ZqmTbqiAQvH7LPS-21" value="" style="strokeWidth=1;html=1;shape=mxgraph.flowchart.annotation_2;align=left;labelPosition=right;pointerEvents=1;rotation=-180;" vertex="1" parent="1">
          <mxGeometry x="479" y="100" width="50" height="40" as="geometry" />
        </mxCell>
        <mxCell id="A6qp0ZqmTbqiAQvH7LPS-22" value="With inactive events" style="text;html=1;align=center;verticalAlign=middle;whiteSpace=wrap;rounded=0;" vertex="1" parent="1">
          <mxGeometry x="420" y="105" width="80" height="30" as="geometry" />
        </mxCell>
      </root>
    </mxGraphModel>
  </diagram>
  <diagram name="Manage Coupons" id="LZbt5RunXbJfIqg84YVY">
    <mxGraphModel dx="1114" dy="656" grid="1" gridSize="10" guides="1" tooltips="1" connect="1" arrows="1" fold="1" page="1" pageScale="1" pageWidth="1169" pageHeight="827" math="0" shadow="0">
      <root>
        <mxCell id="bILfCe1XMWHSMDGud9nE-0" />
        <mxCell id="bILfCe1XMWHSMDGud9nE-1" parent="bILfCe1XMWHSMDGud9nE-0" />
        <mxCell id="LzOGW2d9q0QJ8WYCkPFJ-3" style="edgeStyle=orthogonalEdgeStyle;rounded=0;orthogonalLoop=1;jettySize=auto;html=1;entryX=0.5;entryY=0;entryDx=0;entryDy=0;" edge="1" parent="bILfCe1XMWHSMDGud9nE-1" source="bILfCe1XMWHSMDGud9nE-2" target="LzOGW2d9q0QJ8WYCkPFJ-2">
          <mxGeometry relative="1" as="geometry" />
        </mxCell>
        <mxCell id="LzOGW2d9q0QJ8WYCkPFJ-5" value="Manage Coupons" style="edgeLabel;html=1;align=center;verticalAlign=middle;resizable=0;points=[];" vertex="1" connectable="0" parent="LzOGW2d9q0QJ8WYCkPFJ-3">
          <mxGeometry x="0.0888" relative="1" as="geometry">
            <mxPoint as="offset" />
          </mxGeometry>
        </mxCell>
        <mxCell id="bILfCe1XMWHSMDGud9nE-2" value="Home" style="rounded=1;whiteSpace=wrap;html=1;absoluteArcSize=1;arcSize=14;strokeWidth=1;" vertex="1" parent="bILfCe1XMWHSMDGud9nE-1">
          <mxGeometry x="510" y="50" width="100" height="40" as="geometry" />
        </mxCell>
        <mxCell id="bILfCe1XMWHSMDGud9nE-9" value="See coupon details" style="rounded=1;whiteSpace=wrap;html=1;absoluteArcSize=1;arcSize=14;strokeWidth=1;" vertex="1" parent="bILfCe1XMWHSMDGud9nE-1">
          <mxGeometry x="510" y="523" width="100" height="40" as="geometry" />
        </mxCell>
        <mxCell id="bILfCe1XMWHSMDGud9nE-21" style="edgeStyle=orthogonalEdgeStyle;rounded=0;orthogonalLoop=1;jettySize=auto;html=1;entryX=0.5;entryY=0;entryDx=0;entryDy=0;" edge="1" parent="bILfCe1XMWHSMDGud9nE-1" source="bILfCe1XMWHSMDGud9nE-25" target="bILfCe1XMWHSMDGud9nE-29">
          <mxGeometry relative="1" as="geometry">
            <mxPoint x="400" y="722.9999999999999" as="targetPoint" />
          </mxGeometry>
        </mxCell>
        <mxCell id="bILfCe1XMWHSMDGud9nE-22" value="Edit Coupon" style="edgeLabel;html=1;align=center;verticalAlign=middle;resizable=0;points=[];" vertex="1" connectable="0" parent="bILfCe1XMWHSMDGud9nE-21">
          <mxGeometry x="-0.4016" y="2" relative="1" as="geometry">
            <mxPoint as="offset" />
          </mxGeometry>
        </mxCell>
        <mxCell id="bILfCe1XMWHSMDGud9nE-23" style="edgeStyle=orthogonalEdgeStyle;rounded=0;orthogonalLoop=1;jettySize=auto;html=1;" edge="1" parent="bILfCe1XMWHSMDGud9nE-1" source="bILfCe1XMWHSMDGud9nE-25">
          <mxGeometry relative="1" as="geometry">
            <mxPoint x="720" y="722.9999999999999" as="targetPoint" />
          </mxGeometry>
        </mxCell>
        <mxCell id="bILfCe1XMWHSMDGud9nE-24" value="Deactivate Coupon" style="edgeLabel;html=1;align=center;verticalAlign=middle;resizable=0;points=[];" vertex="1" connectable="0" parent="bILfCe1XMWHSMDGud9nE-23">
          <mxGeometry x="-0.3173" y="-3" relative="1" as="geometry">
            <mxPoint as="offset" />
          </mxGeometry>
        </mxCell>
        <mxCell id="bILfCe1XMWHSMDGud9nE-25" value="Action Selected" style="strokeWidth=1;html=1;shape=mxgraph.flowchart.decision;whiteSpace=wrap;" vertex="1" parent="bILfCe1XMWHSMDGud9nE-1">
          <mxGeometry x="510" y="597" width="100" height="100" as="geometry" />
        </mxCell>
        <mxCell id="bILfCe1XMWHSMDGud9nE-26" style="edgeStyle=orthogonalEdgeStyle;rounded=0;orthogonalLoop=1;jettySize=auto;html=1;entryX=0.5;entryY=0;entryDx=0;entryDy=0;entryPerimeter=0;" edge="1" parent="bILfCe1XMWHSMDGud9nE-1" source="bILfCe1XMWHSMDGud9nE-9" target="bILfCe1XMWHSMDGud9nE-25">
          <mxGeometry relative="1" as="geometry" />
        </mxCell>
        <mxCell id="bILfCe1XMWHSMDGud9nE-27" style="edgeStyle=orthogonalEdgeStyle;rounded=0;orthogonalLoop=1;jettySize=auto;html=1;entryX=0.5;entryY=0;entryDx=0;entryDy=0;entryPerimeter=0;" edge="1" parent="bILfCe1XMWHSMDGud9nE-1" source="bILfCe1XMWHSMDGud9nE-29" target="bILfCe1XMWHSMDGud9nE-34">
          <mxGeometry relative="1" as="geometry">
            <mxPoint x="400" y="792.9999999999999" as="targetPoint" />
          </mxGeometry>
        </mxCell>
        <mxCell id="bILfCe1XMWHSMDGud9nE-28" value="Submit" style="edgeLabel;html=1;align=center;verticalAlign=middle;resizable=0;points=[];" vertex="1" connectable="0" parent="bILfCe1XMWHSMDGud9nE-27">
          <mxGeometry x="0.1014" y="-1" relative="1" as="geometry">
            <mxPoint as="offset" />
          </mxGeometry>
        </mxCell>
        <mxCell id="bILfCe1XMWHSMDGud9nE-29" value="Insert New&lt;div&gt;Coupon&amp;nbsp;&lt;span style=&quot;background-color: initial;&quot;&gt;Data&lt;/span&gt;&lt;/div&gt;" style="shape=parallelogram;html=1;strokeWidth=1;perimeter=parallelogramPerimeter;whiteSpace=wrap;rounded=1;arcSize=12;size=0.23;" vertex="1" parent="bILfCe1XMWHSMDGud9nE-1">
          <mxGeometry x="340" y="723" width="120" height="40" as="geometry" />
        </mxCell>
        <mxCell id="bILfCe1XMWHSMDGud9nE-30" style="edgeStyle=orthogonalEdgeStyle;rounded=0;orthogonalLoop=1;jettySize=auto;html=1;entryX=1;entryY=0.25;entryDx=0;entryDy=0;" edge="1" parent="bILfCe1XMWHSMDGud9nE-1" source="bILfCe1XMWHSMDGud9nE-34" target="bILfCe1XMWHSMDGud9nE-29">
          <mxGeometry relative="1" as="geometry">
            <Array as="points">
              <mxPoint x="490" y="847" />
              <mxPoint x="490" y="734" />
            </Array>
          </mxGeometry>
        </mxCell>
        <mxCell id="bILfCe1XMWHSMDGud9nE-31" value="No" style="edgeLabel;html=1;align=center;verticalAlign=middle;resizable=0;points=[];" vertex="1" connectable="0" parent="bILfCe1XMWHSMDGud9nE-30">
          <mxGeometry x="-0.0969" y="-3" relative="1" as="geometry">
            <mxPoint as="offset" />
          </mxGeometry>
        </mxCell>
        <mxCell id="bILfCe1XMWHSMDGud9nE-32" style="edgeStyle=orthogonalEdgeStyle;rounded=0;orthogonalLoop=1;jettySize=auto;html=1;entryX=0.5;entryY=0;entryDx=0;entryDy=0;" edge="1" parent="bILfCe1XMWHSMDGud9nE-1" source="bILfCe1XMWHSMDGud9nE-34" target="bILfCe1XMWHSMDGud9nE-37">
          <mxGeometry relative="1" as="geometry">
            <mxPoint x="400" y="922.9999999999999" as="targetPoint" />
          </mxGeometry>
        </mxCell>
        <mxCell id="bILfCe1XMWHSMDGud9nE-33" value="Yes" style="edgeLabel;html=1;align=center;verticalAlign=middle;resizable=0;points=[];" vertex="1" connectable="0" parent="bILfCe1XMWHSMDGud9nE-32">
          <mxGeometry x="-0.4394" y="-2" relative="1" as="geometry">
            <mxPoint as="offset" />
          </mxGeometry>
        </mxCell>
        <mxCell id="bILfCe1XMWHSMDGud9nE-34" value="Is Data valid?" style="strokeWidth=1;html=1;shape=mxgraph.flowchart.decision;whiteSpace=wrap;" vertex="1" parent="bILfCe1XMWHSMDGud9nE-1">
          <mxGeometry x="350" y="797" width="100" height="100" as="geometry" />
        </mxCell>
        <mxCell id="bILfCe1XMWHSMDGud9nE-35" style="edgeStyle=orthogonalEdgeStyle;rounded=0;orthogonalLoop=1;jettySize=auto;html=1;entryX=0;entryY=0.5;entryDx=0;entryDy=0;" edge="1" parent="bILfCe1XMWHSMDGud9nE-1" source="bILfCe1XMWHSMDGud9nE-37" target="bILfCe1XMWHSMDGud9nE-9">
          <mxGeometry relative="1" as="geometry">
            <Array as="points">
              <mxPoint x="310" y="953" />
              <mxPoint x="310" y="543" />
            </Array>
          </mxGeometry>
        </mxCell>
        <mxCell id="bILfCe1XMWHSMDGud9nE-36" value="Succesfully" style="edgeLabel;html=1;align=center;verticalAlign=middle;resizable=0;points=[];" vertex="1" connectable="0" parent="bILfCe1XMWHSMDGud9nE-35">
          <mxGeometry x="-0.2913" y="-1" relative="1" as="geometry">
            <mxPoint x="-11" as="offset" />
          </mxGeometry>
        </mxCell>
        <mxCell id="bILfCe1XMWHSMDGud9nE-37" value="Edit Coupon" style="rounded=1;whiteSpace=wrap;html=1;absoluteArcSize=1;arcSize=14;strokeWidth=1;" vertex="1" parent="bILfCe1XMWHSMDGud9nE-1">
          <mxGeometry x="350" y="933" width="100" height="40" as="geometry" />
        </mxCell>
        <mxCell id="bILfCe1XMWHSMDGud9nE-38" style="edgeStyle=orthogonalEdgeStyle;rounded=0;orthogonalLoop=1;jettySize=auto;html=1;entryX=1;entryY=0.5;entryDx=0;entryDy=0;" edge="1" parent="bILfCe1XMWHSMDGud9nE-1" source="bILfCe1XMWHSMDGud9nE-42" target="bILfCe1XMWHSMDGud9nE-9">
          <mxGeometry relative="1" as="geometry">
            <Array as="points">
              <mxPoint x="800" y="763" />
              <mxPoint x="800" y="543" />
            </Array>
          </mxGeometry>
        </mxCell>
        <mxCell id="bILfCe1XMWHSMDGud9nE-39" value="No" style="edgeLabel;html=1;align=center;verticalAlign=middle;resizable=0;points=[];" vertex="1" connectable="0" parent="bILfCe1XMWHSMDGud9nE-38">
          <mxGeometry x="-0.2902" y="3" relative="1" as="geometry">
            <mxPoint as="offset" />
          </mxGeometry>
        </mxCell>
        <mxCell id="bILfCe1XMWHSMDGud9nE-40" style="edgeStyle=orthogonalEdgeStyle;rounded=0;orthogonalLoop=1;jettySize=auto;html=1;entryX=0.5;entryY=0;entryDx=0;entryDy=0;" edge="1" parent="bILfCe1XMWHSMDGud9nE-1" source="bILfCe1XMWHSMDGud9nE-42" target="bILfCe1XMWHSMDGud9nE-45">
          <mxGeometry relative="1" as="geometry">
            <mxPoint x="720" y="853" as="targetPoint" />
          </mxGeometry>
        </mxCell>
        <mxCell id="bILfCe1XMWHSMDGud9nE-41" value="Yes" style="edgeLabel;html=1;align=center;verticalAlign=middle;resizable=0;points=[];" vertex="1" connectable="0" parent="bILfCe1XMWHSMDGud9nE-40">
          <mxGeometry x="0.0076" y="4" relative="1" as="geometry">
            <mxPoint as="offset" />
          </mxGeometry>
        </mxCell>
        <mxCell id="bILfCe1XMWHSMDGud9nE-42" value="Sure to&amp;nbsp;&lt;div&gt;deactivate the&lt;/div&gt;&lt;div&gt;coupon?&lt;/div&gt;" style="strokeWidth=1;html=1;shape=mxgraph.flowchart.decision;whiteSpace=wrap;" vertex="1" parent="bILfCe1XMWHSMDGud9nE-1">
          <mxGeometry x="670" y="713" width="100" height="100" as="geometry" />
        </mxCell>
        <mxCell id="bILfCe1XMWHSMDGud9nE-43" style="edgeStyle=orthogonalEdgeStyle;rounded=0;orthogonalLoop=1;jettySize=auto;html=1;entryX=1;entryY=0.5;entryDx=0;entryDy=0;" edge="1" parent="bILfCe1XMWHSMDGud9nE-1" source="bILfCe1XMWHSMDGud9nE-45" target="3QUrg0Ondwhrm6fGRfhw-21">
          <mxGeometry relative="1" as="geometry">
            <Array as="points">
              <mxPoint x="830" y="877" />
              <mxPoint x="830" y="482" />
            </Array>
          </mxGeometry>
        </mxCell>
        <mxCell id="bILfCe1XMWHSMDGud9nE-44" value="Succesfully" style="edgeLabel;html=1;align=center;verticalAlign=middle;resizable=0;points=[];" vertex="1" connectable="0" parent="bILfCe1XMWHSMDGud9nE-43">
          <mxGeometry x="-0.6683" relative="1" as="geometry">
            <mxPoint as="offset" />
          </mxGeometry>
        </mxCell>
        <mxCell id="bILfCe1XMWHSMDGud9nE-45" value="Deactivate Coupon" style="rounded=1;whiteSpace=wrap;html=1;absoluteArcSize=1;arcSize=14;strokeWidth=1;" vertex="1" parent="bILfCe1XMWHSMDGud9nE-1">
          <mxGeometry x="670" y="857" width="100" height="40" as="geometry" />
        </mxCell>
        <mxCell id="LzOGW2d9q0QJ8WYCkPFJ-2" value="List Coupons" style="rounded=1;whiteSpace=wrap;html=1;" vertex="1" parent="bILfCe1XMWHSMDGud9nE-1">
          <mxGeometry x="510" y="124" width="100" height="40" as="geometry" />
        </mxCell>
        <mxCell id="3QUrg0Ondwhrm6fGRfhw-11" style="edgeStyle=orthogonalEdgeStyle;rounded=0;orthogonalLoop=1;jettySize=auto;html=1;entryX=0.5;entryY=0;entryDx=0;entryDy=0;" edge="1" parent="bILfCe1XMWHSMDGud9nE-1" source="3QUrg0Ondwhrm6fGRfhw-17" target="3QUrg0Ondwhrm6fGRfhw-20">
          <mxGeometry relative="1" as="geometry">
            <mxPoint x="360" y="290" as="targetPoint" />
            <Array as="points">
              <mxPoint x="490" y="240" />
              <mxPoint x="490" y="360" />
              <mxPoint x="560" y="360" />
            </Array>
          </mxGeometry>
        </mxCell>
        <mxCell id="3QUrg0Ondwhrm6fGRfhw-12" value="Search By Event" style="edgeLabel;html=1;align=center;verticalAlign=middle;resizable=0;points=[];" vertex="1" connectable="0" parent="3QUrg0Ondwhrm6fGRfhw-11">
          <mxGeometry x="0.0919" y="-4" relative="1" as="geometry">
            <mxPoint x="4" y="-37" as="offset" />
          </mxGeometry>
        </mxCell>
        <mxCell id="3QUrg0Ondwhrm6fGRfhw-15" style="edgeStyle=orthogonalEdgeStyle;rounded=0;orthogonalLoop=1;jettySize=auto;html=1;entryX=0.5;entryY=0;entryDx=0;entryDy=0;" edge="1" parent="bILfCe1XMWHSMDGud9nE-1" source="3QUrg0Ondwhrm6fGRfhw-17" target="3QUrg0Ondwhrm6fGRfhw-20">
          <mxGeometry relative="1" as="geometry">
            <Array as="points">
              <mxPoint x="630" y="240" />
              <mxPoint x="630" y="360" />
              <mxPoint x="560" y="360" />
            </Array>
          </mxGeometry>
        </mxCell>
        <mxCell id="3QUrg0Ondwhrm6fGRfhw-16" value="Search By Date" style="edgeLabel;html=1;align=center;verticalAlign=middle;resizable=0;points=[];" vertex="1" connectable="0" parent="3QUrg0Ondwhrm6fGRfhw-15">
          <mxGeometry x="-0.0687" y="-3" relative="1" as="geometry">
            <mxPoint y="-19" as="offset" />
          </mxGeometry>
        </mxCell>
        <mxCell id="3QUrg0Ondwhrm6fGRfhw-26" style="edgeStyle=orthogonalEdgeStyle;rounded=0;orthogonalLoop=1;jettySize=auto;html=1;entryX=0.5;entryY=0;entryDx=0;entryDy=0;" edge="1" parent="bILfCe1XMWHSMDGud9nE-1" source="3QUrg0Ondwhrm6fGRfhw-17" target="3QUrg0Ondwhrm6fGRfhw-20">
          <mxGeometry relative="1" as="geometry" />
        </mxCell>
        <mxCell id="3QUrg0Ondwhrm6fGRfhw-27" value="Search by active" style="edgeLabel;html=1;align=center;verticalAlign=middle;resizable=0;points=[];" vertex="1" connectable="0" parent="3QUrg0Ondwhrm6fGRfhw-26">
          <mxGeometry x="-0.1778" y="-1" relative="1" as="geometry">
            <mxPoint y="8" as="offset" />
          </mxGeometry>
        </mxCell>
        <mxCell id="3QUrg0Ondwhrm6fGRfhw-17" value="Action Selected" style="strokeWidth=1;html=1;shape=mxgraph.flowchart.decision;whiteSpace=wrap;" vertex="1" parent="bILfCe1XMWHSMDGud9nE-1">
          <mxGeometry x="510" y="190" width="100" height="100" as="geometry" />
        </mxCell>
        <mxCell id="3QUrg0Ondwhrm6fGRfhw-18" style="edgeStyle=orthogonalEdgeStyle;rounded=0;orthogonalLoop=1;jettySize=auto;html=1;entryX=0.5;entryY=0;entryDx=0;entryDy=0;" edge="1" parent="bILfCe1XMWHSMDGud9nE-1" source="3QUrg0Ondwhrm6fGRfhw-20" target="3QUrg0Ondwhrm6fGRfhw-21">
          <mxGeometry relative="1" as="geometry">
            <mxPoint x="560" y="450" as="targetPoint" />
          </mxGeometry>
        </mxCell>
        <mxCell id="3QUrg0Ondwhrm6fGRfhw-19" value="Found" style="edgeLabel;html=1;align=center;verticalAlign=middle;resizable=0;points=[];" vertex="1" connectable="0" parent="3QUrg0Ondwhrm6fGRfhw-18">
          <mxGeometry x="-0.0455" y="3" relative="1" as="geometry">
            <mxPoint as="offset" />
          </mxGeometry>
        </mxCell>
        <mxCell id="3QUrg0Ondwhrm6fGRfhw-20" value="Coupon Query By&lt;div&gt;Condition&lt;/div&gt;" style="rounded=1;whiteSpace=wrap;html=1;absoluteArcSize=1;arcSize=14;strokeWidth=1;" vertex="1" parent="bILfCe1XMWHSMDGud9nE-1">
          <mxGeometry x="510" y="380" width="100" height="40" as="geometry" />
        </mxCell>
        <mxCell id="3QUrg0Ondwhrm6fGRfhw-24" style="edgeStyle=orthogonalEdgeStyle;rounded=0;orthogonalLoop=1;jettySize=auto;html=1;entryX=0.5;entryY=0;entryDx=0;entryDy=0;" edge="1" parent="bILfCe1XMWHSMDGud9nE-1" source="3QUrg0Ondwhrm6fGRfhw-21" target="bILfCe1XMWHSMDGud9nE-9">
          <mxGeometry relative="1" as="geometry" />
        </mxCell>
        <mxCell id="3QUrg0Ondwhrm6fGRfhw-25" value="Select Coupon" style="edgeLabel;html=1;align=center;verticalAlign=middle;resizable=0;points=[];" vertex="1" connectable="0" parent="3QUrg0Ondwhrm6fGRfhw-24">
          <mxGeometry x="-0.0115" y="-1" relative="1" as="geometry">
            <mxPoint as="offset" />
          </mxGeometry>
        </mxCell>
        <mxCell id="3QUrg0Ondwhrm6fGRfhw-21" value="Show Coupon/s" style="rounded=1;whiteSpace=wrap;html=1;" vertex="1" parent="bILfCe1XMWHSMDGud9nE-1">
          <mxGeometry x="510" y="464" width="100" height="36" as="geometry" />
        </mxCell>
        <mxCell id="3QUrg0Ondwhrm6fGRfhw-22" style="edgeStyle=orthogonalEdgeStyle;rounded=0;orthogonalLoop=1;jettySize=auto;html=1;entryX=0.5;entryY=0;entryDx=0;entryDy=0;entryPerimeter=0;" edge="1" parent="bILfCe1XMWHSMDGud9nE-1" source="LzOGW2d9q0QJ8WYCkPFJ-2" target="3QUrg0Ondwhrm6fGRfhw-17">
          <mxGeometry relative="1" as="geometry" />
        </mxCell>
        <mxCell id="3QUrg0Ondwhrm6fGRfhw-23" value="Filter coupons" style="edgeLabel;html=1;align=center;verticalAlign=middle;resizable=0;points=[];" vertex="1" connectable="0" parent="3QUrg0Ondwhrm6fGRfhw-22">
          <mxGeometry x="0.3916" y="-1" relative="1" as="geometry">
            <mxPoint as="offset" />
          </mxGeometry>
        </mxCell>
      </root>
    </mxGraphModel>
  </diagram>
  <diagram id="1jdATTZhsm9PrIBLtAw_" name="Create Coupons">
    <mxGraphModel dx="1114" dy="656" grid="1" gridSize="10" guides="1" tooltips="1" connect="1" arrows="1" fold="1" page="1" pageScale="1" pageWidth="1169" pageHeight="827" math="0" shadow="0">
      <root>
        <mxCell id="0" />
        <mxCell id="1" parent="0" />
        <mxCell id="eV4nDgkSbuaXPMocW-vG-1" value="Home" style="rounded=1;whiteSpace=wrap;html=1;absoluteArcSize=1;arcSize=14;strokeWidth=1;" vertex="1" parent="1">
          <mxGeometry x="510" y="60" width="100" height="40" as="geometry" />
        </mxCell>
        <mxCell id="eV4nDgkSbuaXPMocW-vG-2" style="edgeStyle=orthogonalEdgeStyle;rounded=0;orthogonalLoop=1;jettySize=auto;html=1;entryX=0.5;entryY=0;entryDx=0;entryDy=0;" edge="1" parent="1" source="eV4nDgkSbuaXPMocW-vG-6" target="eV4nDgkSbuaXPMocW-vG-47">
          <mxGeometry relative="1" as="geometry">
            <mxPoint x="360" y="240" as="targetPoint" />
            <Array as="points">
              <mxPoint x="360" y="190" />
            </Array>
          </mxGeometry>
        </mxCell>
        <mxCell id="eV4nDgkSbuaXPMocW-vG-3" value="For one date" style="edgeLabel;html=1;align=center;verticalAlign=middle;resizable=0;points=[];" vertex="1" connectable="0" parent="eV4nDgkSbuaXPMocW-vG-2">
          <mxGeometry x="0.0919" y="-4" relative="1" as="geometry">
            <mxPoint x="20" as="offset" />
          </mxGeometry>
        </mxCell>
        <mxCell id="eV4nDgkSbuaXPMocW-vG-4" style="edgeStyle=orthogonalEdgeStyle;rounded=0;orthogonalLoop=1;jettySize=auto;html=1;entryX=0.5;entryY=0;entryDx=0;entryDy=0;" edge="1" parent="1" source="eV4nDgkSbuaXPMocW-vG-6" target="eV4nDgkSbuaXPMocW-vG-11">
          <mxGeometry relative="1" as="geometry">
            <mxPoint x="760" y="240" as="targetPoint" />
            <Array as="points">
              <mxPoint x="760" y="190" />
            </Array>
          </mxGeometry>
        </mxCell>
        <mxCell id="eV4nDgkSbuaXPMocW-vG-5" value="For one Event" style="edgeLabel;html=1;align=center;verticalAlign=middle;resizable=0;points=[];" vertex="1" connectable="0" parent="eV4nDgkSbuaXPMocW-vG-4">
          <mxGeometry x="0.0018" y="4" relative="1" as="geometry">
            <mxPoint x="-20" as="offset" />
          </mxGeometry>
        </mxCell>
        <mxCell id="eV4nDgkSbuaXPMocW-vG-6" value="Action Selected" style="strokeWidth=1;html=1;shape=mxgraph.flowchart.decision;whiteSpace=wrap;" vertex="1" parent="1">
          <mxGeometry x="510" y="140" width="100" height="100" as="geometry" />
        </mxCell>
        <mxCell id="eV4nDgkSbuaXPMocW-vG-7" style="edgeStyle=orthogonalEdgeStyle;rounded=0;orthogonalLoop=1;jettySize=auto;html=1;entryX=0.5;entryY=0;entryDx=0;entryDy=0;entryPerimeter=0;strokeWidth=1;" edge="1" parent="1" source="eV4nDgkSbuaXPMocW-vG-1" target="eV4nDgkSbuaXPMocW-vG-6">
          <mxGeometry relative="1" as="geometry" />
        </mxCell>
        <mxCell id="eV4nDgkSbuaXPMocW-vG-45" value="Add Coupon" style="edgeLabel;html=1;align=center;verticalAlign=middle;resizable=0;points=[];" vertex="1" connectable="0" parent="eV4nDgkSbuaXPMocW-vG-7">
          <mxGeometry x="-0.3" y="2" relative="1" as="geometry">
            <mxPoint as="offset" />
          </mxGeometry>
        </mxCell>
        <mxCell id="eV4nDgkSbuaXPMocW-vG-9" style="edgeStyle=orthogonalEdgeStyle;rounded=0;orthogonalLoop=1;jettySize=auto;html=1;entryX=0.5;entryY=0;entryDx=0;entryDy=0;entryPerimeter=0;" edge="1" parent="1" source="eV4nDgkSbuaXPMocW-vG-11" target="eV4nDgkSbuaXPMocW-vG-16">
          <mxGeometry relative="1" as="geometry">
            <mxPoint x="760" y="309.9999999999999" as="targetPoint" />
          </mxGeometry>
        </mxCell>
        <mxCell id="eV4nDgkSbuaXPMocW-vG-10" value="Submit" style="edgeLabel;html=1;align=center;verticalAlign=middle;resizable=0;points=[];" vertex="1" connectable="0" parent="eV4nDgkSbuaXPMocW-vG-9">
          <mxGeometry x="0.1014" y="-1" relative="1" as="geometry">
            <mxPoint as="offset" />
          </mxGeometry>
        </mxCell>
        <mxCell id="eV4nDgkSbuaXPMocW-vG-11" value="Select Event&amp;nbsp;" style="shape=parallelogram;html=1;strokeWidth=1;perimeter=parallelogramPerimeter;whiteSpace=wrap;rounded=1;arcSize=12;size=0.23;" vertex="1" parent="1">
          <mxGeometry x="700" y="240" width="120" height="40" as="geometry" />
        </mxCell>
        <mxCell id="eV4nDgkSbuaXPMocW-vG-12" style="edgeStyle=orthogonalEdgeStyle;rounded=0;orthogonalLoop=1;jettySize=auto;html=1;entryX=1;entryY=0.25;entryDx=0;entryDy=0;" edge="1" parent="1" source="eV4nDgkSbuaXPMocW-vG-16" target="eV4nDgkSbuaXPMocW-vG-11">
          <mxGeometry relative="1" as="geometry">
            <Array as="points">
              <mxPoint x="850" y="364" />
              <mxPoint x="850" y="251" />
            </Array>
          </mxGeometry>
        </mxCell>
        <mxCell id="eV4nDgkSbuaXPMocW-vG-13" value="No" style="edgeLabel;html=1;align=center;verticalAlign=middle;resizable=0;points=[];" vertex="1" connectable="0" parent="eV4nDgkSbuaXPMocW-vG-12">
          <mxGeometry x="-0.0969" y="-3" relative="1" as="geometry">
            <mxPoint as="offset" />
          </mxGeometry>
        </mxCell>
        <mxCell id="eV4nDgkSbuaXPMocW-vG-14" style="edgeStyle=orthogonalEdgeStyle;rounded=0;orthogonalLoop=1;jettySize=auto;html=1;entryX=0.5;entryY=0;entryDx=0;entryDy=0;" edge="1" parent="1" source="eV4nDgkSbuaXPMocW-vG-16" target="eV4nDgkSbuaXPMocW-vG-19">
          <mxGeometry relative="1" as="geometry">
            <mxPoint x="760" y="439.9999999999999" as="targetPoint" />
            <Array as="points">
              <mxPoint x="760" y="520" />
              <mxPoint x="560" y="520" />
            </Array>
          </mxGeometry>
        </mxCell>
        <mxCell id="eV4nDgkSbuaXPMocW-vG-15" value="Yes" style="edgeLabel;html=1;align=center;verticalAlign=middle;resizable=0;points=[];" vertex="1" connectable="0" parent="eV4nDgkSbuaXPMocW-vG-14">
          <mxGeometry x="-0.4394" y="-2" relative="1" as="geometry">
            <mxPoint as="offset" />
          </mxGeometry>
        </mxCell>
        <mxCell id="eV4nDgkSbuaXPMocW-vG-16" value="Is Event valid?" style="strokeWidth=1;html=1;shape=mxgraph.flowchart.decision;whiteSpace=wrap;" vertex="1" parent="1">
          <mxGeometry x="710" y="314" width="100" height="100" as="geometry" />
        </mxCell>
        <mxCell id="eV4nDgkSbuaXPMocW-vG-17" style="edgeStyle=orthogonalEdgeStyle;rounded=0;orthogonalLoop=1;jettySize=auto;html=1;entryX=1;entryY=0.5;entryDx=0;entryDy=0;" edge="1" parent="1" source="eV4nDgkSbuaXPMocW-vG-19" target="eV4nDgkSbuaXPMocW-vG-1">
          <mxGeometry relative="1" as="geometry">
            <Array as="points">
              <mxPoint x="880" y="570" />
              <mxPoint x="880" y="80" />
            </Array>
          </mxGeometry>
        </mxCell>
        <mxCell id="eV4nDgkSbuaXPMocW-vG-18" value="Succesfully" style="edgeLabel;html=1;align=center;verticalAlign=middle;resizable=0;points=[];" vertex="1" connectable="0" parent="eV4nDgkSbuaXPMocW-vG-17">
          <mxGeometry x="-0.5333" relative="1" as="geometry">
            <mxPoint x="20" y="-70" as="offset" />
          </mxGeometry>
        </mxCell>
        <mxCell id="eV4nDgkSbuaXPMocW-vG-19" value="Create Coupon" style="rounded=1;whiteSpace=wrap;html=1;absoluteArcSize=1;arcSize=14;strokeWidth=1;" vertex="1" parent="1">
          <mxGeometry x="510" y="550" width="100" height="40" as="geometry" />
        </mxCell>
        <mxCell id="eV4nDgkSbuaXPMocW-vG-53" value="" style="edgeStyle=orthogonalEdgeStyle;rounded=0;orthogonalLoop=1;jettySize=auto;html=1;" edge="1" parent="1" source="eV4nDgkSbuaXPMocW-vG-47" target="eV4nDgkSbuaXPMocW-vG-52">
          <mxGeometry relative="1" as="geometry" />
        </mxCell>
        <mxCell id="eV4nDgkSbuaXPMocW-vG-47" value="Insert Start&lt;div&gt;Date&lt;/div&gt;" style="shape=parallelogram;html=1;strokeWidth=1;perimeter=parallelogramPerimeter;whiteSpace=wrap;rounded=1;arcSize=12;size=0.23;" vertex="1" parent="1">
          <mxGeometry x="300" y="240" width="120" height="40" as="geometry" />
        </mxCell>
        <mxCell id="eV4nDgkSbuaXPMocW-vG-49" style="edgeStyle=orthogonalEdgeStyle;rounded=0;orthogonalLoop=1;jettySize=auto;html=1;exitX=0;exitY=0.5;exitDx=0;exitDy=0;exitPerimeter=0;entryX=0;entryY=0.5;entryDx=0;entryDy=0;strokeWidth=1;" edge="1" parent="1" source="eV4nDgkSbuaXPMocW-vG-48" target="eV4nDgkSbuaXPMocW-vG-47">
          <mxGeometry relative="1" as="geometry" />
        </mxCell>
        <mxCell id="eV4nDgkSbuaXPMocW-vG-48" value="" style="strokeWidth=1;html=1;shape=mxgraph.flowchart.annotation_2;align=left;labelPosition=right;pointerEvents=1;rotation=-180;" vertex="1" parent="1">
          <mxGeometry x="250" y="240" width="50" height="40" as="geometry" />
        </mxCell>
        <mxCell id="eV4nDgkSbuaXPMocW-vG-51" value="Must be a day after today" style="text;html=1;align=center;verticalAlign=middle;whiteSpace=wrap;rounded=0;" vertex="1" parent="1">
          <mxGeometry x="191" y="245" width="80" height="30" as="geometry" />
        </mxCell>
        <mxCell id="eV4nDgkSbuaXPMocW-vG-52" value="Insert End&lt;div&gt;Date&lt;/div&gt;" style="shape=parallelogram;html=1;strokeWidth=1;perimeter=parallelogramPerimeter;whiteSpace=wrap;rounded=1;arcSize=12;size=0.23;" vertex="1" parent="1">
          <mxGeometry x="300" y="314" width="120" height="40" as="geometry" />
        </mxCell>
        <mxCell id="eV4nDgkSbuaXPMocW-vG-58" value="" style="strokeWidth=1;html=1;shape=mxgraph.flowchart.annotation_2;align=left;labelPosition=right;pointerEvents=1;rotation=-180;" vertex="1" parent="1">
          <mxGeometry x="250" y="311" width="50" height="54" as="geometry" />
        </mxCell>
        <mxCell id="eV4nDgkSbuaXPMocW-vG-59" value="Must be a day after Start Date" style="text;html=1;align=center;verticalAlign=middle;whiteSpace=wrap;rounded=0;" vertex="1" parent="1">
          <mxGeometry x="191" y="324" width="80" height="30" as="geometry" />
        </mxCell>
        <mxCell id="eV4nDgkSbuaXPMocW-vG-62" style="edgeStyle=orthogonalEdgeStyle;rounded=0;orthogonalLoop=1;jettySize=auto;html=1;exitX=0;exitY=0.5;exitDx=0;exitDy=0;exitPerimeter=0;entryX=0.108;entryY=0.591;entryDx=0;entryDy=0;entryPerimeter=0;strokeWidth=1;" edge="1" parent="1" source="eV4nDgkSbuaXPMocW-vG-58" target="eV4nDgkSbuaXPMocW-vG-52">
          <mxGeometry relative="1" as="geometry" />
        </mxCell>
        <mxCell id="eV4nDgkSbuaXPMocW-vG-65" style="edgeStyle=orthogonalEdgeStyle;rounded=0;orthogonalLoop=1;jettySize=auto;html=1;entryX=1;entryY=0.5;entryDx=0;entryDy=0;" edge="1" parent="1" source="eV4nDgkSbuaXPMocW-vG-63" target="eV4nDgkSbuaXPMocW-vG-47">
          <mxGeometry relative="1" as="geometry">
            <Array as="points">
              <mxPoint x="460" y="430" />
              <mxPoint x="460" y="260" />
            </Array>
          </mxGeometry>
        </mxCell>
        <mxCell id="eV4nDgkSbuaXPMocW-vG-66" value="No" style="edgeLabel;html=1;align=center;verticalAlign=middle;resizable=0;points=[];" vertex="1" connectable="0" parent="eV4nDgkSbuaXPMocW-vG-65">
          <mxGeometry x="-0.1517" y="1" relative="1" as="geometry">
            <mxPoint as="offset" />
          </mxGeometry>
        </mxCell>
        <mxCell id="eV4nDgkSbuaXPMocW-vG-67" style="edgeStyle=orthogonalEdgeStyle;rounded=0;orthogonalLoop=1;jettySize=auto;html=1;" edge="1" parent="1" source="eV4nDgkSbuaXPMocW-vG-63">
          <mxGeometry relative="1" as="geometry">
            <mxPoint x="560" y="550" as="targetPoint" />
            <Array as="points">
              <mxPoint x="360" y="520" />
              <mxPoint x="560" y="520" />
            </Array>
          </mxGeometry>
        </mxCell>
        <mxCell id="eV4nDgkSbuaXPMocW-vG-68" value="Yes" style="edgeLabel;html=1;align=center;verticalAlign=middle;resizable=0;points=[];" vertex="1" connectable="0" parent="eV4nDgkSbuaXPMocW-vG-67">
          <mxGeometry x="-0.8028" y="1" relative="1" as="geometry">
            <mxPoint as="offset" />
          </mxGeometry>
        </mxCell>
        <mxCell id="eV4nDgkSbuaXPMocW-vG-63" value="Are dates valid?" style="strokeWidth=1;html=1;shape=mxgraph.flowchart.decision;whiteSpace=wrap;" vertex="1" parent="1">
          <mxGeometry x="310" y="380" width="100" height="100" as="geometry" />
        </mxCell>
        <mxCell id="eV4nDgkSbuaXPMocW-vG-64" style="edgeStyle=orthogonalEdgeStyle;rounded=0;orthogonalLoop=1;jettySize=auto;html=1;entryX=0.5;entryY=0;entryDx=0;entryDy=0;entryPerimeter=0;" edge="1" parent="1" source="eV4nDgkSbuaXPMocW-vG-52" target="eV4nDgkSbuaXPMocW-vG-63">
          <mxGeometry relative="1" as="geometry" />
        </mxCell>
      </root>
    </mxGraphModel>
  </diagram>
  <diagram id="eWgQBV1kr3NCVfLjmEkw" name="Filter Events">
    <mxGraphModel dx="1114" dy="656" grid="1" gridSize="10" guides="1" tooltips="1" connect="1" arrows="1" fold="1" page="1" pageScale="1" pageWidth="1169" pageHeight="827" math="0" shadow="0">
      <root>
        <mxCell id="0" />
        <mxCell id="1" parent="0" />
        <mxCell id="_bqmdWZ1BsEhtiukPW4o-2" style="edgeStyle=orthogonalEdgeStyle;rounded=0;orthogonalLoop=1;jettySize=auto;html=1;entryX=0.5;entryY=0;entryDx=0;entryDy=0;" edge="1" parent="1" source="uwfG8ZYbLJ4fvK3QnbO--1" target="_bqmdWZ1BsEhtiukPW4o-1">
          <mxGeometry relative="1" as="geometry" />
        </mxCell>
        <mxCell id="_bqmdWZ1BsEhtiukPW4o-4" value="General List" style="edgeLabel;html=1;align=center;verticalAlign=middle;resizable=0;points=[];" vertex="1" connectable="0" parent="_bqmdWZ1BsEhtiukPW4o-2">
          <mxGeometry x="0.05" y="3" relative="1" as="geometry">
            <mxPoint x="-3" y="-5" as="offset" />
          </mxGeometry>
        </mxCell>
        <mxCell id="uwfG8ZYbLJ4fvK3QnbO--1" value="Home" style="rounded=1;whiteSpace=wrap;html=1;absoluteArcSize=1;arcSize=14;strokeWidth=1;" vertex="1" parent="1">
          <mxGeometry x="510" y="90" width="100" height="40" as="geometry" />
        </mxCell>
        <mxCell id="uwfG8ZYbLJ4fvK3QnbO--2" style="edgeStyle=orthogonalEdgeStyle;rounded=0;orthogonalLoop=1;jettySize=auto;html=1;entryX=0.5;entryY=0;entryDx=0;entryDy=0;" edge="1" parent="1" source="uwfG8ZYbLJ4fvK3QnbO--6" target="uwfG8ZYbLJ4fvK3QnbO--8">
          <mxGeometry relative="1" as="geometry">
            <mxPoint x="360" y="350" as="targetPoint" />
            <Array as="points">
              <mxPoint x="440" y="300" />
              <mxPoint x="440" y="420" />
              <mxPoint x="560" y="420" />
            </Array>
          </mxGeometry>
        </mxCell>
        <mxCell id="uwfG8ZYbLJ4fvK3QnbO--3" value="Search By Active" style="edgeLabel;html=1;align=center;verticalAlign=middle;resizable=0;points=[];" vertex="1" connectable="0" parent="uwfG8ZYbLJ4fvK3QnbO--2">
          <mxGeometry x="0.0919" y="-4" relative="1" as="geometry">
            <mxPoint x="4" y="-37" as="offset" />
          </mxGeometry>
        </mxCell>
        <mxCell id="uwfG8ZYbLJ4fvK3QnbO--4" style="edgeStyle=orthogonalEdgeStyle;rounded=0;orthogonalLoop=1;jettySize=auto;html=1;entryX=0.5;entryY=0;entryDx=0;entryDy=0;exitX=0.204;exitY=0.697;exitDx=0;exitDy=0;exitPerimeter=0;" edge="1" parent="1" source="uwfG8ZYbLJ4fvK3QnbO--6" target="uwfG8ZYbLJ4fvK3QnbO--8">
          <mxGeometry relative="1" as="geometry">
            <mxPoint x="560" y="410" as="targetPoint" />
            <Array as="points">
              <mxPoint x="520" y="320" />
              <mxPoint x="520" y="395" />
              <mxPoint x="560" y="395" />
            </Array>
          </mxGeometry>
        </mxCell>
        <mxCell id="uwfG8ZYbLJ4fvK3QnbO--5" value="Search By Type" style="edgeLabel;html=1;align=center;verticalAlign=middle;resizable=0;points=[];" vertex="1" connectable="0" parent="uwfG8ZYbLJ4fvK3QnbO--4">
          <mxGeometry x="0.0018" y="4" relative="1" as="geometry">
            <mxPoint x="-10" y="-33" as="offset" />
          </mxGeometry>
        </mxCell>
        <mxCell id="uwfG8ZYbLJ4fvK3QnbO--10" style="edgeStyle=orthogonalEdgeStyle;rounded=0;orthogonalLoop=1;jettySize=auto;html=1;entryX=0.5;entryY=0;entryDx=0;entryDy=0;" edge="1" parent="1" source="uwfG8ZYbLJ4fvK3QnbO--6" target="uwfG8ZYbLJ4fvK3QnbO--8">
          <mxGeometry relative="1" as="geometry">
            <Array as="points">
              <mxPoint x="680" y="300" />
              <mxPoint x="680" y="420" />
              <mxPoint x="560" y="420" />
            </Array>
          </mxGeometry>
        </mxCell>
        <mxCell id="uwfG8ZYbLJ4fvK3QnbO--11" value="Search By City" style="edgeLabel;html=1;align=center;verticalAlign=middle;resizable=0;points=[];" vertex="1" connectable="0" parent="uwfG8ZYbLJ4fvK3QnbO--10">
          <mxGeometry x="-0.0687" y="-3" relative="1" as="geometry">
            <mxPoint y="-26" as="offset" />
          </mxGeometry>
        </mxCell>
        <mxCell id="ua3eXAQn85gbz-XCwcOB-2" value="" style="edgeStyle=orthogonalEdgeStyle;rounded=0;orthogonalLoop=1;jettySize=auto;html=1;exitX=0.77;exitY=0.713;exitDx=0;exitDy=0;exitPerimeter=0;" edge="1" parent="1" source="uwfG8ZYbLJ4fvK3QnbO--6" target="uwfG8ZYbLJ4fvK3QnbO--8">
          <mxGeometry relative="1" as="geometry">
            <Array as="points">
              <mxPoint x="600" y="321" />
              <mxPoint x="600" y="395" />
              <mxPoint x="560" y="395" />
            </Array>
          </mxGeometry>
        </mxCell>
        <mxCell id="ua3eXAQn85gbz-XCwcOB-3" value="Search By Name" style="edgeLabel;html=1;align=center;verticalAlign=middle;resizable=0;points=[];" vertex="1" connectable="0" parent="ua3eXAQn85gbz-XCwcOB-2">
          <mxGeometry x="-0.2934" y="-1" relative="1" as="geometry">
            <mxPoint as="offset" />
          </mxGeometry>
        </mxCell>
        <mxCell id="uwfG8ZYbLJ4fvK3QnbO--6" value="Action Selected" style="strokeWidth=1;html=1;shape=mxgraph.flowchart.decision;whiteSpace=wrap;" vertex="1" parent="1">
          <mxGeometry x="510" y="250" width="100" height="100" as="geometry" />
        </mxCell>
        <mxCell id="uwfG8ZYbLJ4fvK3QnbO--12" style="edgeStyle=orthogonalEdgeStyle;rounded=0;orthogonalLoop=1;jettySize=auto;html=1;entryX=0.5;entryY=0;entryDx=0;entryDy=0;" edge="1" parent="1" source="uwfG8ZYbLJ4fvK3QnbO--8" target="uwfG8ZYbLJ4fvK3QnbO--13">
          <mxGeometry relative="1" as="geometry">
            <mxPoint x="560" y="510" as="targetPoint" />
          </mxGeometry>
        </mxCell>
        <mxCell id="uwfG8ZYbLJ4fvK3QnbO--14" value="Found" style="edgeLabel;html=1;align=center;verticalAlign=middle;resizable=0;points=[];" vertex="1" connectable="0" parent="uwfG8ZYbLJ4fvK3QnbO--12">
          <mxGeometry x="-0.0455" y="3" relative="1" as="geometry">
            <mxPoint as="offset" />
          </mxGeometry>
        </mxCell>
        <mxCell id="uwfG8ZYbLJ4fvK3QnbO--15" style="edgeStyle=orthogonalEdgeStyle;rounded=0;orthogonalLoop=1;jettySize=auto;html=1;entryX=1;entryY=0.5;entryDx=0;entryDy=0;" edge="1" parent="1" source="uwfG8ZYbLJ4fvK3QnbO--8" target="uwfG8ZYbLJ4fvK3QnbO--1">
          <mxGeometry relative="1" as="geometry">
            <Array as="points">
              <mxPoint x="750" y="460" />
              <mxPoint x="750" y="110" />
            </Array>
          </mxGeometry>
        </mxCell>
        <mxCell id="uwfG8ZYbLJ4fvK3QnbO--8" value="Event Query By&lt;div&gt;Condition&lt;/div&gt;" style="rounded=1;whiteSpace=wrap;html=1;absoluteArcSize=1;arcSize=14;strokeWidth=1;" vertex="1" parent="1">
          <mxGeometry x="510" y="440" width="100" height="40" as="geometry" />
        </mxCell>
        <mxCell id="uwfG8ZYbLJ4fvK3QnbO--13" value="Show Event/s" style="rounded=1;whiteSpace=wrap;html=1;" vertex="1" parent="1">
          <mxGeometry x="510" y="524" width="100" height="36" as="geometry" />
        </mxCell>
        <mxCell id="V-XEWN6kWQ09COz68DL7-1" value="" style="strokeWidth=1;html=1;shape=mxgraph.flowchart.annotation_2;align=left;labelPosition=right;pointerEvents=1;rotation=-180;" vertex="1" parent="1">
          <mxGeometry x="348" y="353" width="50" height="40" as="geometry" />
        </mxCell>
        <mxCell id="V-XEWN6kWQ09COz68DL7-2" value="Only Admin" style="text;html=1;align=center;verticalAlign=middle;whiteSpace=wrap;rounded=0;" vertex="1" parent="1">
          <mxGeometry x="289" y="358" width="80" height="30" as="geometry" />
        </mxCell>
        <mxCell id="_bqmdWZ1BsEhtiukPW4o-1" value="Filter Event" style="rounded=1;whiteSpace=wrap;html=1;absoluteArcSize=1;arcSize=14;strokeWidth=1;" vertex="1" parent="1">
          <mxGeometry x="510" y="180" width="100" height="40" as="geometry" />
        </mxCell>
        <mxCell id="_bqmdWZ1BsEhtiukPW4o-3" style="edgeStyle=orthogonalEdgeStyle;rounded=0;orthogonalLoop=1;jettySize=auto;html=1;entryX=0.5;entryY=0;entryDx=0;entryDy=0;entryPerimeter=0;" edge="1" parent="1" source="_bqmdWZ1BsEhtiukPW4o-1" target="uwfG8ZYbLJ4fvK3QnbO--6">
          <mxGeometry relative="1" as="geometry" />
        </mxCell>
        <mxCell id="CL3NoxN59dDxMPuUvF10-1" value="" style="strokeWidth=1;html=1;shape=mxgraph.flowchart.annotation_2;align=left;labelPosition=right;pointerEvents=1;rotation=-180;" vertex="1" parent="1">
          <mxGeometry x="481" y="136" width="51" height="40" as="geometry" />
        </mxCell>
        <mxCell id="CL3NoxN59dDxMPuUvF10-2" value="With inactive events if admin" style="text;html=1;align=center;verticalAlign=middle;whiteSpace=wrap;rounded=0;" vertex="1" parent="1">
          <mxGeometry x="410" y="141" width="93" height="30" as="geometry" />
        </mxCell>
      </root>
    </mxGraphModel>
  </diagram>
  <diagram id="vtOPKhTSrmDUuCo66sE0" name="Buy Tikets">
    <mxGraphModel dx="3645" dy="2285" grid="1" gridSize="10" guides="1" tooltips="1" connect="1" arrows="1" fold="1" page="1" pageScale="1" pageWidth="1169" pageHeight="827" math="0" shadow="0">
      <root>
        <mxCell id="0" />
        <mxCell id="1" parent="0" />
        <mxCell id="0YhEPnWrW8JbfWxs1_C4-3" value="" style="edgeStyle=orthogonalEdgeStyle;rounded=0;orthogonalLoop=1;jettySize=auto;html=1;" parent="1" source="0YhEPnWrW8JbfWxs1_C4-1" target="0YhEPnWrW8JbfWxs1_C4-2" edge="1">
          <mxGeometry relative="1" as="geometry" />
        </mxCell>
        <mxCell id="nnY_uzy2wtkUnuewTbzc-7" value="General List" style="edgeLabel;html=1;align=center;verticalAlign=middle;resizable=0;points=[];" parent="0YhEPnWrW8JbfWxs1_C4-3" vertex="1" connectable="0">
          <mxGeometry x="0.2667" y="1" relative="1" as="geometry">
            <mxPoint x="-1" y="-8" as="offset" />
          </mxGeometry>
        </mxCell>
        <mxCell id="nnY_uzy2wtkUnuewTbzc-40" style="edgeStyle=orthogonalEdgeStyle;rounded=0;orthogonalLoop=1;jettySize=auto;html=1;entryX=0.5;entryY=0;entryDx=0;entryDy=0;" parent="1" source="0YhEPnWrW8JbfWxs1_C4-1" target="nnY_uzy2wtkUnuewTbzc-28" edge="1">
          <mxGeometry relative="1" as="geometry" />
        </mxCell>
        <mxCell id="nnY_uzy2wtkUnuewTbzc-42" value="Admin my actual&lt;div&gt;cart&lt;/div&gt;" style="edgeLabel;html=1;align=center;verticalAlign=middle;resizable=0;points=[];" parent="nnY_uzy2wtkUnuewTbzc-40" vertex="1" connectable="0">
          <mxGeometry x="0.4915" y="4" relative="1" as="geometry">
            <mxPoint x="-4" y="-20" as="offset" />
          </mxGeometry>
        </mxCell>
        <mxCell id="0YhEPnWrW8JbfWxs1_C4-1" value="Home" style="rounded=1;whiteSpace=wrap;html=1;" parent="1" vertex="1">
          <mxGeometry x="525" y="10" width="120" height="40" as="geometry" />
        </mxCell>
        <mxCell id="nnY_uzy2wtkUnuewTbzc-6" value="" style="edgeStyle=orthogonalEdgeStyle;rounded=0;orthogonalLoop=1;jettySize=auto;html=1;" parent="1" source="0YhEPnWrW8JbfWxs1_C4-2" target="nnY_uzy2wtkUnuewTbzc-5" edge="1">
          <mxGeometry relative="1" as="geometry" />
        </mxCell>
        <mxCell id="0YhEPnWrW8JbfWxs1_C4-2" value="Filter Events" style="rounded=1;whiteSpace=wrap;html=1;" parent="1" vertex="1">
          <mxGeometry x="525" y="110" width="120" height="40" as="geometry" />
        </mxCell>
        <mxCell id="nnY_uzy2wtkUnuewTbzc-1" value="" style="strokeWidth=1;html=1;shape=mxgraph.flowchart.annotation_2;align=left;labelPosition=right;pointerEvents=1;rotation=-180;" parent="1" vertex="1">
          <mxGeometry x="475" y="110" width="50" height="40" as="geometry" />
        </mxCell>
        <mxCell id="nnY_uzy2wtkUnuewTbzc-2" value="Only If need it" style="text;html=1;align=center;verticalAlign=middle;whiteSpace=wrap;rounded=0;" parent="1" vertex="1">
          <mxGeometry x="416" y="115" width="80" height="30" as="geometry" />
        </mxCell>
        <mxCell id="nnY_uzy2wtkUnuewTbzc-13" value="" style="edgeStyle=orthogonalEdgeStyle;rounded=0;orthogonalLoop=1;jettySize=auto;html=1;" parent="1" source="nnY_uzy2wtkUnuewTbzc-5" target="nnY_uzy2wtkUnuewTbzc-12" edge="1">
          <mxGeometry relative="1" as="geometry" />
        </mxCell>
        <mxCell id="5sqbECZzd0B_l2vbRjxd-4" style="edgeStyle=orthogonalEdgeStyle;rounded=0;orthogonalLoop=1;jettySize=auto;html=1;entryX=1;entryY=0.5;entryDx=0;entryDy=0;" parent="1" source="nnY_uzy2wtkUnuewTbzc-5" target="vegImdW4Sv5QNTMCKi_G-1" edge="1">
          <mxGeometry relative="1" as="geometry">
            <mxPoint x="450" y="420" as="targetPoint" />
            <Array as="points">
              <mxPoint x="510" y="210" />
              <mxPoint x="510" y="438" />
            </Array>
          </mxGeometry>
        </mxCell>
        <mxCell id="nnY_uzy2wtkUnuewTbzc-5" value="See event details" style="rounded=1;whiteSpace=wrap;html=1;" parent="1" vertex="1">
          <mxGeometry x="525" y="190" width="120" height="40" as="geometry" />
        </mxCell>
        <mxCell id="nnY_uzy2wtkUnuewTbzc-8" value="" style="strokeWidth=1;html=1;shape=mxgraph.flowchart.annotation_2;align=left;labelPosition=right;pointerEvents=1;rotation=-180;" parent="1" vertex="1">
          <mxGeometry x="504.5" y="60" width="50" height="40" as="geometry" />
        </mxCell>
        <mxCell id="nnY_uzy2wtkUnuewTbzc-9" value="Without inactive events" style="text;html=1;align=center;verticalAlign=middle;whiteSpace=wrap;rounded=0;" parent="1" vertex="1">
          <mxGeometry x="440" y="65" width="85.5" height="30" as="geometry" />
        </mxCell>
        <mxCell id="nnY_uzy2wtkUnuewTbzc-14" style="edgeStyle=orthogonalEdgeStyle;rounded=0;orthogonalLoop=1;jettySize=auto;html=1;entryX=1;entryY=0.5;entryDx=0;entryDy=0;" parent="1" source="nnY_uzy2wtkUnuewTbzc-12" target="nnY_uzy2wtkUnuewTbzc-5" edge="1">
          <mxGeometry relative="1" as="geometry">
            <Array as="points">
              <mxPoint x="665" y="320" />
              <mxPoint x="665" y="210" />
            </Array>
          </mxGeometry>
        </mxCell>
        <mxCell id="nnY_uzy2wtkUnuewTbzc-15" value="No" style="edgeLabel;html=1;align=center;verticalAlign=middle;resizable=0;points=[];" parent="nnY_uzy2wtkUnuewTbzc-14" vertex="1" connectable="0">
          <mxGeometry x="-0.0474" y="-2" relative="1" as="geometry">
            <mxPoint as="offset" />
          </mxGeometry>
        </mxCell>
        <mxCell id="PbiIiB5mvA30gOkmkMCE-2" style="edgeStyle=orthogonalEdgeStyle;rounded=0;orthogonalLoop=1;jettySize=auto;html=1;exitX=0.5;exitY=1;exitDx=0;exitDy=0;entryX=0.5;entryY=0;entryDx=0;entryDy=0;" edge="1" parent="1" source="nnY_uzy2wtkUnuewTbzc-12" target="nnY_uzy2wtkUnuewTbzc-16">
          <mxGeometry relative="1" as="geometry" />
        </mxCell>
        <mxCell id="PbiIiB5mvA30gOkmkMCE-3" value="Yes" style="edgeLabel;html=1;align=center;verticalAlign=middle;resizable=0;points=[];" vertex="1" connectable="0" parent="PbiIiB5mvA30gOkmkMCE-2">
          <mxGeometry x="-0.1934" y="-1" relative="1" as="geometry">
            <mxPoint as="offset" />
          </mxGeometry>
        </mxCell>
        <mxCell id="nnY_uzy2wtkUnuewTbzc-12" value="Add to cart?" style="rhombus;whiteSpace=wrap;html=1;rounded=1;" parent="1" vertex="1">
          <mxGeometry x="545" y="280" width="80" height="80" as="geometry" />
        </mxCell>
        <mxCell id="nnY_uzy2wtkUnuewTbzc-20" value="" style="edgeStyle=orthogonalEdgeStyle;rounded=0;orthogonalLoop=1;jettySize=auto;html=1;" parent="1" source="nnY_uzy2wtkUnuewTbzc-16" target="nnY_uzy2wtkUnuewTbzc-19" edge="1">
          <mxGeometry relative="1" as="geometry" />
        </mxCell>
        <mxCell id="nnY_uzy2wtkUnuewTbzc-16" value="Add to shopping cart" style="whiteSpace=wrap;html=1;rounded=1;" parent="1" vertex="1">
          <mxGeometry x="525.5" y="400" width="120" height="36" as="geometry" />
        </mxCell>
        <mxCell id="nnY_uzy2wtkUnuewTbzc-21" style="edgeStyle=orthogonalEdgeStyle;rounded=0;orthogonalLoop=1;jettySize=auto;html=1;exitX=1;exitY=0.5;exitDx=0;exitDy=0;" parent="1" source="nnY_uzy2wtkUnuewTbzc-19" edge="1">
          <mxGeometry relative="1" as="geometry">
            <mxPoint x="620" y="80" as="targetPoint" />
            <Array as="points">
              <mxPoint x="790" y="510" />
              <mxPoint x="790" y="80" />
            </Array>
          </mxGeometry>
        </mxCell>
        <mxCell id="nnY_uzy2wtkUnuewTbzc-22" value="View other events" style="edgeLabel;html=1;align=center;verticalAlign=middle;resizable=0;points=[];" parent="nnY_uzy2wtkUnuewTbzc-21" vertex="1" connectable="0">
          <mxGeometry x="-0.1454" relative="1" as="geometry">
            <mxPoint as="offset" />
          </mxGeometry>
        </mxCell>
        <mxCell id="nnY_uzy2wtkUnuewTbzc-31" value="" style="edgeStyle=orthogonalEdgeStyle;rounded=0;orthogonalLoop=1;jettySize=auto;html=1;" parent="1" source="nnY_uzy2wtkUnuewTbzc-19" target="nnY_uzy2wtkUnuewTbzc-30" edge="1">
          <mxGeometry relative="1" as="geometry" />
        </mxCell>
        <mxCell id="5sqbECZzd0B_l2vbRjxd-3" style="edgeStyle=orthogonalEdgeStyle;rounded=0;orthogonalLoop=1;jettySize=auto;html=1;exitX=0;exitY=0;exitDx=0;exitDy=0;entryX=1;entryY=0.5;entryDx=0;entryDy=0;" parent="1" source="nnY_uzy2wtkUnuewTbzc-19" target="nnY_uzy2wtkUnuewTbzc-28" edge="1">
          <mxGeometry relative="1" as="geometry">
            <Array as="points">
              <mxPoint x="480" y="490" />
              <mxPoint x="480" y="450" />
              <mxPoint x="481" y="450" />
              <mxPoint x="481" y="250" />
            </Array>
          </mxGeometry>
        </mxCell>
        <mxCell id="nnY_uzy2wtkUnuewTbzc-19" value="What is&lt;div&gt;next?&lt;/div&gt;" style="rhombus;whiteSpace=wrap;html=1;rounded=1;" parent="1" vertex="1">
          <mxGeometry x="545.5" y="470" width="80" height="80" as="geometry" />
        </mxCell>
        <mxCell id="5sqbECZzd0B_l2vbRjxd-5" style="edgeStyle=orthogonalEdgeStyle;rounded=0;orthogonalLoop=1;jettySize=auto;html=1;entryX=0.5;entryY=0;entryDx=0;entryDy=0;" parent="1" source="nnY_uzy2wtkUnuewTbzc-28" target="vegImdW4Sv5QNTMCKi_G-1" edge="1">
          <mxGeometry relative="1" as="geometry" />
        </mxCell>
        <mxCell id="5sqbECZzd0B_l2vbRjxd-6" value="For each event&lt;div&gt;in the cart&lt;/div&gt;" style="edgeLabel;html=1;align=center;verticalAlign=middle;resizable=0;points=[];" parent="5sqbECZzd0B_l2vbRjxd-5" vertex="1" connectable="0">
          <mxGeometry x="0.3256" y="2" relative="1" as="geometry">
            <mxPoint as="offset" />
          </mxGeometry>
        </mxCell>
        <mxCell id="nnY_uzy2wtkUnuewTbzc-28" value="Manage Shopping Cart" style="whiteSpace=wrap;html=1;rounded=1;" parent="1" vertex="1">
          <mxGeometry x="296" y="230" width="120" height="40" as="geometry" />
        </mxCell>
        <mxCell id="nnY_uzy2wtkUnuewTbzc-33" style="edgeStyle=orthogonalEdgeStyle;rounded=0;orthogonalLoop=1;jettySize=auto;html=1;entryX=0.5;entryY=0;entryDx=0;entryDy=0;" parent="1" source="nnY_uzy2wtkUnuewTbzc-30" target="nnY_uzy2wtkUnuewTbzc-32" edge="1">
          <mxGeometry relative="1" as="geometry" />
        </mxCell>
        <mxCell id="nnY_uzy2wtkUnuewTbzc-30" value="Remove from shopping cart" style="whiteSpace=wrap;html=1;rounded=1;" parent="1" vertex="1">
          <mxGeometry x="525.5" y="580" width="120" height="40" as="geometry" />
        </mxCell>
        <mxCell id="nnY_uzy2wtkUnuewTbzc-36" style="edgeStyle=orthogonalEdgeStyle;rounded=0;orthogonalLoop=1;jettySize=auto;html=1;entryX=1;entryY=0.5;entryDx=0;entryDy=0;exitX=1;exitY=0.5;exitDx=0;exitDy=0;" parent="1" source="vegImdW4Sv5QNTMCKi_G-10" target="nnY_uzy2wtkUnuewTbzc-5" edge="1">
          <mxGeometry relative="1" as="geometry">
            <Array as="points">
              <mxPoint x="690" y="770" />
              <mxPoint x="690" y="210" />
            </Array>
          </mxGeometry>
        </mxCell>
        <mxCell id="nnY_uzy2wtkUnuewTbzc-37" value="Yes" style="edgeLabel;html=1;align=center;verticalAlign=middle;resizable=0;points=[];" parent="nnY_uzy2wtkUnuewTbzc-36" vertex="1" connectable="0">
          <mxGeometry x="0.749" y="1" relative="1" as="geometry">
            <mxPoint as="offset" />
          </mxGeometry>
        </mxCell>
        <mxCell id="nnY_uzy2wtkUnuewTbzc-38" style="edgeStyle=orthogonalEdgeStyle;rounded=0;orthogonalLoop=1;jettySize=auto;html=1;entryX=1;entryY=1;entryDx=0;entryDy=0;" parent="1" source="nnY_uzy2wtkUnuewTbzc-32" target="nnY_uzy2wtkUnuewTbzc-19" edge="1">
          <mxGeometry relative="1" as="geometry">
            <Array as="points">
              <mxPoint x="670" y="670" />
              <mxPoint x="670" y="530" />
            </Array>
          </mxGeometry>
        </mxCell>
        <mxCell id="nnY_uzy2wtkUnuewTbzc-39" value="No" style="edgeLabel;html=1;align=center;verticalAlign=middle;resizable=0;points=[];" parent="nnY_uzy2wtkUnuewTbzc-38" vertex="1" connectable="0">
          <mxGeometry x="-0.252" y="-1" relative="1" as="geometry">
            <mxPoint as="offset" />
          </mxGeometry>
        </mxCell>
        <mxCell id="vegImdW4Sv5QNTMCKi_G-11" value="" style="edgeStyle=orthogonalEdgeStyle;rounded=0;orthogonalLoop=1;jettySize=auto;html=1;" parent="1" source="nnY_uzy2wtkUnuewTbzc-32" target="vegImdW4Sv5QNTMCKi_G-10" edge="1">
          <mxGeometry relative="1" as="geometry" />
        </mxCell>
        <mxCell id="nnY_uzy2wtkUnuewTbzc-32" value="Are you shure?" style="rhombus;whiteSpace=wrap;html=1;rounded=1;" parent="1" vertex="1">
          <mxGeometry x="545" y="650" width="80" height="80" as="geometry" />
        </mxCell>
        <mxCell id="ev2x_PqQmb6-lOMHs1jf-4" style="edgeStyle=orthogonalEdgeStyle;rounded=0;orthogonalLoop=1;jettySize=auto;html=1;entryX=1;entryY=0.5;entryDx=0;entryDy=0;" parent="1" source="vegImdW4Sv5QNTMCKi_G-1" target="vegImdW4Sv5QNTMCKi_G-7" edge="1">
          <mxGeometry relative="1" as="geometry">
            <Array as="points">
              <mxPoint x="280" y="438" />
              <mxPoint x="280" y="600" />
            </Array>
          </mxGeometry>
        </mxCell>
        <mxCell id="vegImdW4Sv5QNTMCKi_G-12" style="edgeStyle=orthogonalEdgeStyle;rounded=0;orthogonalLoop=1;jettySize=auto;html=1;entryX=0.5;entryY=1;entryDx=0;entryDy=0;" parent="1" source="vegImdW4Sv5QNTMCKi_G-7" target="vegImdW4Sv5QNTMCKi_G-8" edge="1">
          <mxGeometry relative="1" as="geometry" />
        </mxCell>
        <mxCell id="vegImdW4Sv5QNTMCKi_G-20" value="" style="edgeStyle=orthogonalEdgeStyle;rounded=0;orthogonalLoop=1;jettySize=auto;html=1;" parent="1" source="vegImdW4Sv5QNTMCKi_G-7" target="vegImdW4Sv5QNTMCKi_G-19" edge="1">
          <mxGeometry relative="1" as="geometry" />
        </mxCell>
        <mxCell id="ev2x_PqQmb6-lOMHs1jf-6" style="edgeStyle=orthogonalEdgeStyle;rounded=0;orthogonalLoop=1;jettySize=auto;html=1;entryX=0;entryY=0.5;entryDx=0;entryDy=0;" parent="1" source="vegImdW4Sv5QNTMCKi_G-7" target="nnY_uzy2wtkUnuewTbzc-28" edge="1">
          <mxGeometry relative="1" as="geometry">
            <Array as="points">
              <mxPoint x="180" y="650" />
              <mxPoint x="280" y="650" />
              <mxPoint x="280" y="250" />
            </Array>
          </mxGeometry>
        </mxCell>
        <mxCell id="ev2x_PqQmb6-lOMHs1jf-7" value="All ready" style="edgeLabel;html=1;align=center;verticalAlign=middle;resizable=0;points=[];" parent="ev2x_PqQmb6-lOMHs1jf-6" vertex="1" connectable="0">
          <mxGeometry x="0.093" y="-3" relative="1" as="geometry">
            <mxPoint x="-8" y="-3" as="offset" />
          </mxGeometry>
        </mxCell>
        <mxCell id="PbiIiB5mvA30gOkmkMCE-5" value="" style="edgeStyle=orthogonalEdgeStyle;rounded=0;orthogonalLoop=1;jettySize=auto;html=1;" edge="1" parent="1" source="vegImdW4Sv5QNTMCKi_G-7" target="vegImdW4Sv5QNTMCKi_G-14">
          <mxGeometry relative="1" as="geometry" />
        </mxCell>
        <mxCell id="PbiIiB5mvA30gOkmkMCE-6" value="If i get in from the cart view" style="edgeLabel;html=1;align=center;verticalAlign=middle;resizable=0;points=[];" vertex="1" connectable="0" parent="PbiIiB5mvA30gOkmkMCE-5">
          <mxGeometry x="-0.7496" y="-1" relative="1" as="geometry">
            <mxPoint as="offset" />
          </mxGeometry>
        </mxCell>
        <mxCell id="vegImdW4Sv5QNTMCKi_G-7" value="What is&lt;div&gt;next?&lt;/div&gt;" style="rhombus;whiteSpace=wrap;html=1;rounded=1;" parent="1" vertex="1">
          <mxGeometry x="140" y="560" width="80" height="80" as="geometry" />
        </mxCell>
        <mxCell id="vegImdW4Sv5QNTMCKi_G-8" value="Remove from shopping cart" style="whiteSpace=wrap;html=1;rounded=1;" parent="1" vertex="1">
          <mxGeometry x="125" y="480" width="110" height="40" as="geometry" />
        </mxCell>
        <mxCell id="vegImdW4Sv5QNTMCKi_G-10" value="Delet Event from the cart" style="whiteSpace=wrap;html=1;rounded=1;" parent="1" vertex="1">
          <mxGeometry x="525.5" y="750" width="120" height="40" as="geometry" />
        </mxCell>
        <mxCell id="vegImdW4Sv5QNTMCKi_G-17" style="edgeStyle=orthogonalEdgeStyle;rounded=0;orthogonalLoop=1;jettySize=auto;html=1;entryX=0.5;entryY=1;entryDx=0;entryDy=0;" parent="1" source="vegImdW4Sv5QNTMCKi_G-14" target="vegImdW4Sv5QNTMCKi_G-15" edge="1">
          <mxGeometry relative="1" as="geometry" />
        </mxCell>
        <mxCell id="vegImdW4Sv5QNTMCKi_G-22" value="Yes" style="edgeLabel;html=1;align=center;verticalAlign=middle;resizable=0;points=[];" parent="vegImdW4Sv5QNTMCKi_G-17" vertex="1" connectable="0">
          <mxGeometry x="0.5516" y="-1" relative="1" as="geometry">
            <mxPoint x="-1" y="19" as="offset" />
          </mxGeometry>
        </mxCell>
        <mxCell id="vegImdW4Sv5QNTMCKi_G-23" style="edgeStyle=orthogonalEdgeStyle;rounded=0;orthogonalLoop=1;jettySize=auto;html=1;entryX=0;entryY=0;entryDx=0;entryDy=0;" parent="1" source="vegImdW4Sv5QNTMCKi_G-14" target="vegImdW4Sv5QNTMCKi_G-7" edge="1">
          <mxGeometry relative="1" as="geometry">
            <Array as="points">
              <mxPoint x="100" y="418" />
              <mxPoint x="100" y="560" />
              <mxPoint x="160" y="560" />
            </Array>
          </mxGeometry>
        </mxCell>
        <mxCell id="vegImdW4Sv5QNTMCKi_G-24" value="No" style="edgeLabel;html=1;align=center;verticalAlign=middle;resizable=0;points=[];" parent="vegImdW4Sv5QNTMCKi_G-23" vertex="1" connectable="0">
          <mxGeometry x="-0.335" relative="1" as="geometry">
            <mxPoint as="offset" />
          </mxGeometry>
        </mxCell>
        <mxCell id="vegImdW4Sv5QNTMCKi_G-14" value="Are you shure?" style="rhombus;whiteSpace=wrap;html=1;rounded=1;" parent="1" vertex="1">
          <mxGeometry x="139.5" y="378" width="80" height="80" as="geometry" />
        </mxCell>
        <mxCell id="vegImdW4Sv5QNTMCKi_G-15" value="Delet Event from the cart" style="whiteSpace=wrap;html=1;rounded=1;" parent="1" vertex="1">
          <mxGeometry x="119.5" y="290" width="120" height="40" as="geometry" />
        </mxCell>
        <mxCell id="vegImdW4Sv5QNTMCKi_G-16" style="edgeStyle=orthogonalEdgeStyle;rounded=0;orthogonalLoop=1;jettySize=auto;html=1;entryX=0.518;entryY=0.927;entryDx=0;entryDy=0;entryPerimeter=0;" parent="1" source="vegImdW4Sv5QNTMCKi_G-8" target="vegImdW4Sv5QNTMCKi_G-14" edge="1">
          <mxGeometry relative="1" as="geometry" />
        </mxCell>
        <mxCell id="ev2x_PqQmb6-lOMHs1jf-9" value="" style="edgeStyle=orthogonalEdgeStyle;rounded=0;orthogonalLoop=1;jettySize=auto;html=1;entryX=1;entryY=0.5;entryDx=0;entryDy=0;" parent="1" source="vegImdW4Sv5QNTMCKi_G-19" target="ev2x_PqQmb6-lOMHs1jf-15" edge="1">
          <mxGeometry relative="1" as="geometry">
            <mxPoint x="-141.49999999999955" y="600" as="targetPoint" />
          </mxGeometry>
        </mxCell>
        <mxCell id="ev2x_PqQmb6-lOMHs1jf-12" value="For each&lt;div&gt;location wanted&lt;/div&gt;" style="edgeLabel;html=1;align=center;verticalAlign=middle;resizable=0;points=[];" parent="ev2x_PqQmb6-lOMHs1jf-9" vertex="1" connectable="0">
          <mxGeometry x="-0.0035" y="-2" relative="1" as="geometry">
            <mxPoint as="offset" />
          </mxGeometry>
        </mxCell>
        <mxCell id="vegImdW4Sv5QNTMCKi_G-19" value="Add location information" style="whiteSpace=wrap;html=1;rounded=1;" parent="1" vertex="1">
          <mxGeometry y="580" width="90" height="40" as="geometry" />
        </mxCell>
        <mxCell id="ev2x_PqQmb6-lOMHs1jf-22" style="edgeStyle=orthogonalEdgeStyle;rounded=0;orthogonalLoop=1;jettySize=auto;html=1;" parent="1" source="ev2x_PqQmb6-lOMHs1jf-15" edge="1">
          <mxGeometry relative="1" as="geometry">
            <mxPoint x="-200" y="610" as="targetPoint" />
            <Array as="points">
              <mxPoint x="-460" y="680" />
              <mxPoint x="-200" y="680" />
              <mxPoint x="-200" y="610" />
            </Array>
          </mxGeometry>
        </mxCell>
        <mxCell id="ev2x_PqQmb6-lOMHs1jf-25" style="edgeStyle=orthogonalEdgeStyle;rounded=0;orthogonalLoop=1;jettySize=auto;html=1;entryX=0;entryY=1;entryDx=0;entryDy=0;" parent="1" source="ev2x_PqQmb6-lOMHs1jf-15" target="vegImdW4Sv5QNTMCKi_G-7" edge="1">
          <mxGeometry relative="1" as="geometry">
            <Array as="points">
              <mxPoint x="-460" y="700" />
              <mxPoint x="160" y="700" />
            </Array>
          </mxGeometry>
        </mxCell>
        <mxCell id="ev2x_PqQmb6-lOMHs1jf-15" value="Insert the number of seats" style="whiteSpace=wrap;html=1;strokeWidth=1;rounded=1;arcSize=12;" parent="1" vertex="1">
          <mxGeometry x="-520" y="575" width="120" height="50" as="geometry" />
        </mxCell>
        <mxCell id="ev2x_PqQmb6-lOMHs1jf-20" value="" style="strokeWidth=2;html=1;shape=mxgraph.flowchart.annotation_2;align=left;labelPosition=right;pointerEvents=1;rotation=-90;" parent="1" vertex="1">
          <mxGeometry x="-485" y="500" width="50" height="100" as="geometry" />
        </mxCell>
        <mxCell id="ev2x_PqQmb6-lOMHs1jf-21" value="Limited by the maximum available" style="text;html=1;align=center;verticalAlign=middle;whiteSpace=wrap;rounded=0;" parent="1" vertex="1">
          <mxGeometry x="-510" y="506" width="100" height="40" as="geometry" />
        </mxCell>
        <mxCell id="5sqbECZzd0B_l2vbRjxd-1" value="" style="edgeStyle=orthogonalEdgeStyle;rounded=0;orthogonalLoop=1;jettySize=auto;html=1;" parent="1" source="nnY_uzy2wtkUnuewTbzc-19" target="vegImdW4Sv5QNTMCKi_G-1" edge="1">
          <mxGeometry relative="1" as="geometry">
            <mxPoint x="546" y="510" as="sourcePoint" />
            <mxPoint x="380" y="350" as="targetPoint" />
            <Array as="points">
              <mxPoint x="410" y="510" />
            </Array>
          </mxGeometry>
        </mxCell>
        <mxCell id="5sqbECZzd0B_l2vbRjxd-2" value="Complete my&lt;div&gt;purchase&lt;/div&gt;" style="edgeLabel;html=1;align=center;verticalAlign=middle;resizable=0;points=[];" parent="5sqbECZzd0B_l2vbRjxd-1" vertex="1" connectable="0">
          <mxGeometry x="-0.2163" y="-1" relative="1" as="geometry">
            <mxPoint as="offset" />
          </mxGeometry>
        </mxCell>
        <mxCell id="5sqbECZzd0B_l2vbRjxd-11" value="" style="edgeStyle=orthogonalEdgeStyle;rounded=0;orthogonalLoop=1;jettySize=auto;html=1;" parent="1" source="vegImdW4Sv5QNTMCKi_G-1" target="5sqbECZzd0B_l2vbRjxd-10" edge="1">
          <mxGeometry relative="1" as="geometry" />
        </mxCell>
        <mxCell id="5sqbECZzd0B_l2vbRjxd-12" value="Are all complete" style="edgeLabel;html=1;align=center;verticalAlign=middle;resizable=0;points=[];" parent="5sqbECZzd0B_l2vbRjxd-11" vertex="1" connectable="0">
          <mxGeometry x="0.0472" y="3" relative="1" as="geometry">
            <mxPoint as="offset" />
          </mxGeometry>
        </mxCell>
        <mxCell id="PbiIiB5mvA30gOkmkMCE-1" style="edgeStyle=orthogonalEdgeStyle;rounded=0;orthogonalLoop=1;jettySize=auto;html=1;exitX=1;exitY=0;exitDx=0;exitDy=0;entryX=0;entryY=0.5;entryDx=0;entryDy=0;" edge="1" parent="1" source="vegImdW4Sv5QNTMCKi_G-1" target="nnY_uzy2wtkUnuewTbzc-12">
          <mxGeometry relative="1" as="geometry" />
        </mxCell>
        <mxCell id="PbiIiB5mvA30gOkmkMCE-4" value="Complete" style="edgeLabel;html=1;align=center;verticalAlign=middle;resizable=0;points=[];" vertex="1" connectable="0" parent="PbiIiB5mvA30gOkmkMCE-1">
          <mxGeometry x="-0.5074" relative="1" as="geometry">
            <mxPoint as="offset" />
          </mxGeometry>
        </mxCell>
        <mxCell id="vegImdW4Sv5QNTMCKi_G-1" value="Complet order information" style="whiteSpace=wrap;html=1;rounded=1;" parent="1" vertex="1">
          <mxGeometry x="320" y="418" width="120" height="40" as="geometry" />
        </mxCell>
        <mxCell id="5sqbECZzd0B_l2vbRjxd-13" style="edgeStyle=orthogonalEdgeStyle;rounded=0;orthogonalLoop=1;jettySize=auto;html=1;entryX=0.5;entryY=0;entryDx=0;entryDy=0;exitX=0.5;exitY=1;exitDx=0;exitDy=0;" parent="1" source="5sqbECZzd0B_l2vbRjxd-25" target="5sqbECZzd0B_l2vbRjxd-15" edge="1">
          <mxGeometry relative="1" as="geometry">
            <mxPoint x="565" y="1060" as="targetPoint" />
          </mxGeometry>
        </mxCell>
        <mxCell id="5sqbECZzd0B_l2vbRjxd-14" value="Yes" style="edgeLabel;html=1;align=center;verticalAlign=middle;resizable=0;points=[];" parent="5sqbECZzd0B_l2vbRjxd-13" vertex="1" connectable="0">
          <mxGeometry x="0.1491" relative="1" as="geometry">
            <mxPoint as="offset" />
          </mxGeometry>
        </mxCell>
        <mxCell id="5sqbECZzd0B_l2vbRjxd-32" style="edgeStyle=orthogonalEdgeStyle;rounded=0;orthogonalLoop=1;jettySize=auto;html=1;entryX=0;entryY=1;entryDx=0;entryDy=0;" parent="1" source="5sqbECZzd0B_l2vbRjxd-10" target="vegImdW4Sv5QNTMCKi_G-1" edge="1">
          <mxGeometry relative="1" as="geometry">
            <Array as="points">
              <mxPoint x="320" y="710" />
            </Array>
          </mxGeometry>
        </mxCell>
        <mxCell id="5sqbECZzd0B_l2vbRjxd-33" value="Check the&lt;div&gt;information&lt;/div&gt;" style="edgeLabel;html=1;align=center;verticalAlign=middle;resizable=0;points=[];" parent="5sqbECZzd0B_l2vbRjxd-32" vertex="1" connectable="0">
          <mxGeometry x="-0.4412" y="3" relative="1" as="geometry">
            <mxPoint as="offset" />
          </mxGeometry>
        </mxCell>
        <mxCell id="PbiIiB5mvA30gOkmkMCE-9" value="" style="edgeStyle=orthogonalEdgeStyle;rounded=0;orthogonalLoop=1;jettySize=auto;html=1;" edge="1" parent="1" source="5sqbECZzd0B_l2vbRjxd-10" target="PbiIiB5mvA30gOkmkMCE-8">
          <mxGeometry relative="1" as="geometry" />
        </mxCell>
        <mxCell id="PbiIiB5mvA30gOkmkMCE-14" value="Yes" style="edgeLabel;html=1;align=center;verticalAlign=middle;resizable=0;points=[];" vertex="1" connectable="0" parent="PbiIiB5mvA30gOkmkMCE-9">
          <mxGeometry x="0.2417" relative="1" as="geometry">
            <mxPoint as="offset" />
          </mxGeometry>
        </mxCell>
        <mxCell id="5sqbECZzd0B_l2vbRjxd-10" value="Is Data correct?" style="rhombus;whiteSpace=wrap;html=1;rounded=1;" parent="1" vertex="1">
          <mxGeometry x="340" y="670" width="80" height="80" as="geometry" />
        </mxCell>
        <mxCell id="5sqbECZzd0B_l2vbRjxd-35" value="" style="edgeStyle=orthogonalEdgeStyle;rounded=0;orthogonalLoop=1;jettySize=auto;html=1;" parent="1" source="5sqbECZzd0B_l2vbRjxd-15" target="5sqbECZzd0B_l2vbRjxd-34" edge="1">
          <mxGeometry relative="1" as="geometry" />
        </mxCell>
        <mxCell id="5sqbECZzd0B_l2vbRjxd-15" value="Complete purchase" style="rounded=1;whiteSpace=wrap;html=1;" parent="1" vertex="1">
          <mxGeometry x="314.5" y="1330" width="100" height="40" as="geometry" />
        </mxCell>
        <mxCell id="5sqbECZzd0B_l2vbRjxd-22" value="" style="edgeStyle=orthogonalEdgeStyle;rounded=0;orthogonalLoop=1;jettySize=auto;html=1;" parent="1" source="5sqbECZzd0B_l2vbRjxd-17" target="5sqbECZzd0B_l2vbRjxd-21" edge="1">
          <mxGeometry relative="1" as="geometry" />
        </mxCell>
        <mxCell id="5sqbECZzd0B_l2vbRjxd-17" value="Add coupon" style="whiteSpace=wrap;html=1;rounded=1;" parent="1" vertex="1">
          <mxGeometry x="314.5" y="960" width="100" height="40" as="geometry" />
        </mxCell>
        <mxCell id="5sqbECZzd0B_l2vbRjxd-24" value="" style="edgeStyle=orthogonalEdgeStyle;rounded=0;orthogonalLoop=1;jettySize=auto;html=1;" parent="1" source="5sqbECZzd0B_l2vbRjxd-21" target="5sqbECZzd0B_l2vbRjxd-23" edge="1">
          <mxGeometry relative="1" as="geometry" />
        </mxCell>
        <mxCell id="5sqbECZzd0B_l2vbRjxd-30" value="Submit" style="edgeLabel;html=1;align=center;verticalAlign=middle;resizable=0;points=[];" parent="5sqbECZzd0B_l2vbRjxd-24" vertex="1" connectable="0">
          <mxGeometry x="-0.0017" y="-2" relative="1" as="geometry">
            <mxPoint as="offset" />
          </mxGeometry>
        </mxCell>
        <mxCell id="5sqbECZzd0B_l2vbRjxd-21" value="Insert coupon&lt;div&gt;code&lt;/div&gt;" style="shape=parallelogram;perimeter=parallelogramPerimeter;whiteSpace=wrap;html=1;fixedSize=1;rounded=1;" parent="1" vertex="1">
          <mxGeometry x="310" y="1040" width="110.5" height="40" as="geometry" />
        </mxCell>
        <mxCell id="5sqbECZzd0B_l2vbRjxd-26" value="" style="edgeStyle=orthogonalEdgeStyle;rounded=0;orthogonalLoop=1;jettySize=auto;html=1;" parent="1" source="5sqbECZzd0B_l2vbRjxd-23" target="5sqbECZzd0B_l2vbRjxd-25" edge="1">
          <mxGeometry relative="1" as="geometry" />
        </mxCell>
        <mxCell id="5sqbECZzd0B_l2vbRjxd-29" value="Yes" style="edgeLabel;html=1;align=center;verticalAlign=middle;resizable=0;points=[];" parent="5sqbECZzd0B_l2vbRjxd-26" vertex="1" connectable="0">
          <mxGeometry x="-0.08" relative="1" as="geometry">
            <mxPoint as="offset" />
          </mxGeometry>
        </mxCell>
        <mxCell id="5sqbECZzd0B_l2vbRjxd-27" style="edgeStyle=orthogonalEdgeStyle;rounded=0;orthogonalLoop=1;jettySize=auto;html=1;entryX=1;entryY=0.5;entryDx=0;entryDy=0;" parent="1" source="5sqbECZzd0B_l2vbRjxd-23" target="5sqbECZzd0B_l2vbRjxd-21" edge="1">
          <mxGeometry relative="1" as="geometry">
            <Array as="points">
              <mxPoint x="445" y="1150" />
              <mxPoint x="445" y="1060" />
            </Array>
          </mxGeometry>
        </mxCell>
        <mxCell id="5sqbECZzd0B_l2vbRjxd-28" value="No" style="edgeLabel;html=1;align=center;verticalAlign=middle;resizable=0;points=[];" parent="5sqbECZzd0B_l2vbRjxd-27" vertex="1" connectable="0">
          <mxGeometry x="-0.0654" y="-1" relative="1" as="geometry">
            <mxPoint as="offset" />
          </mxGeometry>
        </mxCell>
        <mxCell id="5sqbECZzd0B_l2vbRjxd-23" value="Is valid?" style="rhombus;whiteSpace=wrap;html=1;rounded=1;" parent="1" vertex="1">
          <mxGeometry x="325.25" y="1110" width="80" height="80" as="geometry" />
        </mxCell>
        <mxCell id="5sqbECZzd0B_l2vbRjxd-25" value="Apply discount to avialable events" style="whiteSpace=wrap;html=1;rounded=1;" parent="1" vertex="1">
          <mxGeometry x="315.13" y="1230" width="99.75" height="40" as="geometry" />
        </mxCell>
        <mxCell id="5sqbECZzd0B_l2vbRjxd-37" value="" style="edgeStyle=orthogonalEdgeStyle;rounded=0;orthogonalLoop=1;jettySize=auto;html=1;" parent="1" source="5sqbECZzd0B_l2vbRjxd-34" target="5sqbECZzd0B_l2vbRjxd-36" edge="1">
          <mxGeometry relative="1" as="geometry" />
        </mxCell>
        <mxCell id="5sqbECZzd0B_l2vbRjxd-38" value="Yes" style="edgeLabel;html=1;align=center;verticalAlign=middle;resizable=0;points=[];" parent="5sqbECZzd0B_l2vbRjxd-37" vertex="1" connectable="0">
          <mxGeometry x="-0.1347" y="-1" relative="1" as="geometry">
            <mxPoint as="offset" />
          </mxGeometry>
        </mxCell>
        <mxCell id="5sqbECZzd0B_l2vbRjxd-40" value="" style="edgeStyle=orthogonalEdgeStyle;rounded=0;orthogonalLoop=1;jettySize=auto;html=1;" parent="1" source="5sqbECZzd0B_l2vbRjxd-34" target="5sqbECZzd0B_l2vbRjxd-39" edge="1">
          <mxGeometry relative="1" as="geometry" />
        </mxCell>
        <mxCell id="5sqbECZzd0B_l2vbRjxd-41" value="No" style="edgeLabel;html=1;align=center;verticalAlign=middle;resizable=0;points=[];" parent="5sqbECZzd0B_l2vbRjxd-40" vertex="1" connectable="0">
          <mxGeometry x="-0.1556" y="-3" relative="1" as="geometry">
            <mxPoint as="offset" />
          </mxGeometry>
        </mxCell>
        <mxCell id="5sqbECZzd0B_l2vbRjxd-34" value="Is the first&lt;div&gt;buy?&lt;/div&gt;" style="rhombus;whiteSpace=wrap;html=1;rounded=1;" parent="1" vertex="1">
          <mxGeometry x="324.5" y="1400" width="80" height="80" as="geometry" />
        </mxCell>
        <mxCell id="5sqbECZzd0B_l2vbRjxd-42" style="edgeStyle=orthogonalEdgeStyle;rounded=0;orthogonalLoop=1;jettySize=auto;html=1;entryX=1;entryY=0.5;entryDx=0;entryDy=0;" parent="1" source="5sqbECZzd0B_l2vbRjxd-36" target="5sqbECZzd0B_l2vbRjxd-39" edge="1">
          <mxGeometry relative="1" as="geometry" />
        </mxCell>
        <mxCell id="5sqbECZzd0B_l2vbRjxd-36" value="Gif a 10% discount coupon" style="whiteSpace=wrap;html=1;rounded=1;" parent="1" vertex="1">
          <mxGeometry x="414.5" y="1500" width="105" height="40" as="geometry" />
        </mxCell>
        <mxCell id="PbiIiB5mvA30gOkmkMCE-15" style="edgeStyle=orthogonalEdgeStyle;rounded=0;orthogonalLoop=1;jettySize=auto;html=1;entryX=0;entryY=0;entryDx=0;entryDy=0;" edge="1" parent="1" source="5sqbECZzd0B_l2vbRjxd-39" target="0YhEPnWrW8JbfWxs1_C4-1">
          <mxGeometry relative="1" as="geometry">
            <Array as="points">
              <mxPoint x="-590" y="1590" />
              <mxPoint x="-590" y="-10" />
              <mxPoint x="525" y="-10" />
            </Array>
          </mxGeometry>
        </mxCell>
        <mxCell id="5sqbECZzd0B_l2vbRjxd-39" value="Add to history purchase" style="whiteSpace=wrap;html=1;rounded=1;" parent="1" vertex="1">
          <mxGeometry x="314.5" y="1570" width="100" height="40" as="geometry" />
        </mxCell>
        <mxCell id="PbiIiB5mvA30gOkmkMCE-10" style="edgeStyle=orthogonalEdgeStyle;rounded=0;orthogonalLoop=1;jettySize=auto;html=1;entryX=0;entryY=0.5;entryDx=0;entryDy=0;" edge="1" parent="1" source="PbiIiB5mvA30gOkmkMCE-8" target="5sqbECZzd0B_l2vbRjxd-15">
          <mxGeometry relative="1" as="geometry">
            <Array as="points">
              <mxPoint x="230" y="870" />
              <mxPoint x="230" y="1350" />
            </Array>
          </mxGeometry>
        </mxCell>
        <mxCell id="PbiIiB5mvA30gOkmkMCE-11" value="No" style="edgeLabel;html=1;align=center;verticalAlign=middle;resizable=0;points=[];" vertex="1" connectable="0" parent="PbiIiB5mvA30gOkmkMCE-10">
          <mxGeometry x="0.279" y="1" relative="1" as="geometry">
            <mxPoint as="offset" />
          </mxGeometry>
        </mxCell>
        <mxCell id="PbiIiB5mvA30gOkmkMCE-12" style="edgeStyle=orthogonalEdgeStyle;rounded=0;orthogonalLoop=1;jettySize=auto;html=1;entryX=0.5;entryY=0;entryDx=0;entryDy=0;" edge="1" parent="1" source="PbiIiB5mvA30gOkmkMCE-8" target="5sqbECZzd0B_l2vbRjxd-17">
          <mxGeometry relative="1" as="geometry" />
        </mxCell>
        <mxCell id="PbiIiB5mvA30gOkmkMCE-13" value="Yes" style="edgeLabel;html=1;align=center;verticalAlign=middle;resizable=0;points=[];" vertex="1" connectable="0" parent="PbiIiB5mvA30gOkmkMCE-12">
          <mxGeometry x="-0.2723" relative="1" as="geometry">
            <mxPoint as="offset" />
          </mxGeometry>
        </mxCell>
        <mxCell id="PbiIiB5mvA30gOkmkMCE-8" value="Do you want to add a coupon?" style="rhombus;whiteSpace=wrap;html=1;rounded=1;" vertex="1" parent="1">
          <mxGeometry x="340" y="830" width="80" height="80" as="geometry" />
        </mxCell>
      </root>
    </mxGraphModel>
  </diagram>
</mxfile>
